<svg id="Layer_1" data-name="Layer 1" xmlns="http://www.w3.org/2000/svg" viewBox="0 0 1199.12 467.11"><defs><style>.cls-1{fill:#f0eef7;}.cls-2{fill:#fff;}</style></defs><title>stars</title><path class="cls-1" d="M736,353.16a1.8,1.8,0,1,0-.86,2.39A1.8,1.8,0,0,0,736,353.16Zm2.37,39.26a1.75,1.75,0,1,0,2,1.38A1.74,1.74,0,0,0,738.4,392.42ZM735,290.17a3.65,3.65,0,1,0-4.22-3A3.65,3.65,0,0,0,735,290.17Zm25.46-164.84a2.6,2.6,0,0,0,1.75,1.66,1.76,1.76,0,1,0,3.09-1.44,2.6,2.6,0,1,0-4.83-.22ZM792,409a1.4,1.4,0,1,0,1.64,1.11A1.4,1.4,0,0,0,792,409ZM766.27,444.4a1.54,1.54,0,1,0-2-.75A1.53,1.53,0,0,0,766.27,444.4Zm-4.07-330.33a2,2,0,1,0-2.64,1.1A2,2,0,0,0,762.21,114.07Zm1.16,69a3.43,3.43,0,1,0,2.88-3.91A3.43,3.43,0,0,0,763.37,183.1Zm2.24,246.64a1.74,1.74,0,1,0-2.32-.84A1.74,1.74,0,0,0,765.61,429.73ZM704.39,147.06a1.22,1.22,0,1,0,.84,1.52A1.22,1.22,0,0,0,704.39,147.06ZM699,322.39a1.77,1.77,0,1,0,2.38.77A1.76,1.76,0,0,0,699,322.39ZM710,64.91A1.53,1.53,0,1,0,709,63,1.53,1.53,0,0,0,710,64.91Zm-19.81,74.65a2.93,2.93,0,1,0-2.93,2.93A2.93,2.93,0,0,0,690.24,139.56Zm53-79a2.12,2.12,0,1,0-2.12,2.12A2.12,2.12,0,0,0,743.27,60.52ZM709.18,434.65a1.39,1.39,0,1,0-.67,1.85A1.39,1.39,0,0,0,709.18,434.65Zm-12.53-23a.44.44,0,1,0,.54.32A.44.44,0,0,0,696.65,411.69Zm50.23-144a2,2,0,1,0-2-2A2,2,0,0,0,746.88,267.67ZM746,379.06A1.93,1.93,0,1,0,744,381,1.93,1.93,0,0,0,746,379.06ZM722.86,165.6a1.42,1.42,0,1,0,1.41,1.44A1.42,1.42,0,0,0,722.86,165.6Zm31.68,1.49a2.92,2.92,0,1,0-2.38,3.37A2.92,2.92,0,0,0,754.54,167.08ZM844.33,28.35a2.23,2.23,0,1,0-2.23,2.23A2.23,2.23,0,0,0,844.33,28.35Zm-5.25,190.31a1.56,1.56,0,1,0,1.56,1.56A1.56,1.56,0,0,0,839.08,218.66ZM848.48,17.9a1.45,1.45,0,1,0-1.14-1.69A1.44,1.44,0,0,0,848.48,17.9Zm.24,78.6a1.15,1.15,0,1,0,1.36-.91A1.16,1.16,0,0,0,848.73,96.51ZM849,415.79a1.75,1.75,0,1,0,2,1.38A1.74,1.74,0,0,0,849,415.79Zm17.32-3.24a1.42,1.42,0,1,0-1.41-1.44A1.43,1.43,0,0,0,866.3,412.55Zm-30.69-319a1.3,1.3,0,1,0-.79-1.66A1.3,1.3,0,0,0,835.6,93.54Zm3,132.55a2.93,2.93,0,1,0-2.93,2.93A2.93,2.93,0,0,0,838.57,226.09Zm-.24,113.53a1.8,1.8,0,1,0-2.11-1.43A1.8,1.8,0,0,0,838.34,339.63ZM790,178.15a1.41,1.41,0,1,0-2,.31A1.41,1.41,0,0,0,790,178.15Zm-4.52,59.37a2,2,0,1,0,2.56,1.26A2,2,0,0,0,785.44,237.52Zm2.62,176.77a2,2,0,1,0-2.64,1.1A2,2,0,0,0,788.06,414.28Zm33.78-188.49a1.76,1.76,0,1,0-.39-2.46A1.76,1.76,0,0,0,821.84,225.79ZM801.9,340.94a3.67,3.67,0,1,0-3.66,3.67A3.66,3.66,0,0,0,801.9,340.94Zm-16.24-6.27a3.33,3.33,0,1,0-2.79,3.79A3.33,3.33,0,0,0,785.67,334.67Zm-1.94-20.24a1.41,1.41,0,1,0-2,.31A1.41,1.41,0,0,0,783.73,314.42Zm.43-257.33a3.65,3.65,0,1,0,3-4.22A3.65,3.65,0,0,0,784.17,57.1Zm.24-28.55A1.32,1.32,0,1,0,783,27.3,1.32,1.32,0,0,0,784.41,28.55Zm21,375.19a3.33,3.33,0,1,0-2.79,3.79A3.33,3.33,0,0,0,805.39,403.74ZM827.93,95a1.74,1.74,0,1,0,1.16,2.16A1.74,1.74,0,0,0,827.93,95ZM799.15,53.51a1.63,1.63,0,1,0,2.08-1A1.63,1.63,0,0,0,799.15,53.51Zm26.1,298.31a2.21,2.21,0,1,0,2,2.39A2.21,2.21,0,0,0,825.25,351.82Zm-13.19-21.26a1.39,1.39,0,1,0-1.85-.67A1.39,1.39,0,0,0,812.06,330.56ZM798.22,26.25a1.23,1.23,0,1,0-.84-1.52A1.23,1.23,0,0,0,798.22,26.25ZM813.62,113a2.79,2.79,0,1,0,2.79,2.79A2.79,2.79,0,0,0,813.62,113ZM680.25,68.55a1.38,1.38,0,1,0-1.7-.95A1.38,1.38,0,0,0,680.25,68.55Zm13.58,318.75a.57.57,0,1,0-.69-.41A.57.57,0,0,0,693.83,387.31Zm-94.89-7.78a2.93,2.93,0,1,0,2.93,2.93A2.93,2.93,0,0,0,598.94,379.53ZM573.65,271.11a2.21,2.21,0,1,0-3-1A2.2,2.2,0,0,0,573.65,271.11Zm.7,171.54a.44.44,0,1,0,.54.32A.44.44,0,0,0,574.35,442.65Zm4-360a1.87,1.87,0,1,0-2.12-1.57A1.87,1.87,0,0,0,578.33,82.63Zm.58,135.53a1.42,1.42,0,1,0,1.44-1.41A1.42,1.42,0,0,0,578.91,218.17Zm30.76-60.26a2.53,2.53,0,1,0,1.37,3.3A2.53,2.53,0,0,0,609.67,157.91Zm-5.36,15.47a2.92,2.92,0,1,0,3.37,2.38A2.92,2.92,0,0,0,604.31,173.38ZM592.65,5.57a1.72,1.72,0,1,0-1.19,2.12A1.72,1.72,0,0,0,592.65,5.57Zm-3,259a1.34,1.34,0,1,0-1.8-.56A1.33,1.33,0,0,0,589.65,264.6Zm-1.27,176.33a1,1,0,1,0-1.42-.34A1,1,0,0,0,588.38,440.93ZM546.22,198.36a1.87,1.87,0,1,0,1.57-2.13A1.87,1.87,0,0,0,546.22,198.36Zm2,140.17a1.93,1.93,0,1,0,1.93,1.93A1.93,1.93,0,0,0,548.27,338.53Zm.47,22a2.92,2.92,0,1,0-2.38,3.37A2.92,2.92,0,0,0,548.74,360.49ZM543,414.9a.44.44,0,1,0-.53-.32A.44.44,0,0,0,543,414.9Zm13.47-24.22a.57.57,0,1,0-.41.69A.57.57,0,0,0,556.52,390.67ZM544.52,108a2,2,0,1,0-1.1-2.64A2,2,0,0,0,544.52,108Zm39,188.42a2,2,0,1,0,1.1,2.64A2,2,0,0,0,583.5,296.44ZM542.69,427a1.27,1.27,0,1,0-1.79,0A1.27,1.27,0,0,0,542.69,427Zm38.76-38.84a.44.44,0,1,0-.54-.32A.44.44,0,0,0,581.44,388.17ZM574,285.69a3.33,3.33,0,1,0-3.79-2.79A3.33,3.33,0,0,0,574,285.69ZM657.41,57.24A2.61,2.61,0,1,0,656,53.83,2.61,2.61,0,0,0,657.41,57.24ZM651.49,431.1a1.74,1.74,0,1,0,2.32.84A1.74,1.74,0,0,0,651.49,431.1Zm6-59.42a1.27,1.27,0,1,0,1.79,0A1.27,1.27,0,0,0,657.51,371.68Zm-2.82-36.12a1.42,1.42,0,1,0-1.4-1.44A1.42,1.42,0,0,0,654.7,335.56Zm8.62-107.09a2.28,2.28,0,1,0,1-3.06A2.27,2.27,0,0,0,663.31,228.48Zm.8-81.08a2.23,2.23,0,1,0-2.23,2.23A2.23,2.23,0,0,0,664.12,147.4ZM866.56,137a1.39,1.39,0,1,0-.92-1.73A1.39,1.39,0,0,0,866.56,137ZM668.72,391.28a.55.55,0,1,0,.67.4A.55.55,0,0,0,668.72,391.28Zm5.54-34.14a.55.55,0,1,0-.67-.4A.55.55,0,0,0,674.26,357.14ZM650.66,75.29A2,2,0,1,0,648.09,74,2,2,0,0,0,650.66,75.29Zm23.09,239.37a2.66,2.66,0,1,0,3,2.23A2.66,2.66,0,0,0,673.75,314.66ZM650.32,154.15a2.52,2.52,0,1,0,3.2,1.58A2.52,2.52,0,0,0,650.32,154.15Zm-12.73-43.47a1.93,1.93,0,1,0,1.93,1.93A1.93,1.93,0,0,0,637.59,110.68ZM632.94,2.63A1.53,1.53,0,0,0,634.36,0h-2a1.53,1.53,0,0,0,.57,2.63Zm9.4,11.12a1.05,1.05,0,1,0,1.05,1.05A1.05,1.05,0,0,0,642.34,13.75Zm-1,391.07a.44.44,0,1,0,.54.32A.44.44,0,0,0,641.31,404.82Zm-26-90a1.64,1.64,0,1,0-2.31,0A1.63,1.63,0,0,0,615.32,314.86Zm27.51-159.59a1.84,1.84,0,1,0-1.86,1.81A1.84,1.84,0,0,0,642.83,155.27Zm-24.37-51a1.48,1.48,0,1,0,1.73,1.18A1.48,1.48,0,0,0,618.46,104.27Zm5.21-104a1.07,1.07,0,0,0,0-.27h-2.31a1.17,1.17,0,0,0,.84,1.08A1.18,1.18,0,0,0,623.67.27Zm12,277.64a1.5,1.5,0,1,0-1.7-1.26A1.5,1.5,0,0,0,635.69,277.91ZM631.56,38.17A1.35,1.35,0,1,0,630,37.11,1.35,1.35,0,0,0,631.56,38.17ZM669.92,373.3a.44.44,0,1,0,.54.32A.44.44,0,0,0,669.92,373.3Zm-1.55-337a1.23,1.23,0,1,0-.84-1.52A1.23,1.23,0,0,0,668.37,36.3ZM614.1,21.65a1.91,1.91,0,1,0-2.23-1.52A1.91,1.91,0,0,0,614.1,21.65Zm20,215.43a1.78,1.78,0,1,0,1.8-1.76A1.78,1.78,0,0,0,634.08,237.07Zm1.66-47.8a1.93,1.93,0,1,0-1.62,2.19A1.93,1.93,0,0,0,635.74,189.27ZM1084.87,452.2a1.18,1.18,0,1,0,.81,1.45A1.18,1.18,0,0,0,1084.87,452.2Zm-51.48-249.7a2,2,0,1,0,2-2A2,2,0,0,0,1033.39,202.5Zm54.78-187.68a1.53,1.53,0,1,0-2.09.59A1.53,1.53,0,0,0,1088.16,14.81Zm3.74,322.39a1.34,1.34,0,1,0,1.51,1.14A1.34,1.34,0,0,0,1091.9,337.21ZM1076.12,0h-3a2,2,0,0,0,1.38.7A2,2,0,0,0,1076.12,0Zm-8.77,341.68a1.77,1.77,0,1,0-1.91,1.61A1.77,1.77,0,0,0,1067.35,341.68Zm49.3-324.31a1.27,1.27,0,1,0,1.27,1.27A1.27,1.27,0,0,0,1116.65,17.37ZM1064.94,143a1.44,1.44,0,1,0-1.57,1.29A1.44,1.44,0,0,0,1064.94,143Zm51,282.78a1.27,1.27,0,1,0,1.27,1.27A1.27,1.27,0,0,0,1116,425.79Zm-33.69-24.55a1.34,1.34,0,1,0-1.32,1.37A1.34,1.34,0,0,0,1082.27,401.24Zm25-108.23a1.47,1.47,0,1,0,1,1.82A1.47,1.47,0,0,0,1107.22,293Zm6.27-9a1.28,1.28,0,1,0,1.28,1.28A1.28,1.28,0,0,0,1113.49,284Zm-16.6-148.5a1.48,1.48,0,1,0-.82-1.92A1.47,1.47,0,0,0,1096.89,135.46Zm1.41,25a1.53,1.53,0,1,0,.59,2.09A1.53,1.53,0,0,0,1098.3,160.49ZM1097.73,89a1.66,1.66,0,1,0-2,1.18A1.67,1.67,0,0,0,1097.73,89Zm-56.37-34.43a1.59,1.59,0,1,0-1.49-1.69A1.59,1.59,0,0,0,1041.36,54.59Zm67,67.52a2,2,0,1,0,1.91,2.17A2,2,0,0,0,1108.37,122.1Zm-65.07,198a1.68,1.68,0,1,0-2.49,1.68,2.52,2.52,0,1,0,.81.22h.25A1.68,1.68,0,0,0,1043.3,320.06Zm-9.93-155.15a1.14,1.14,0,1,0-.64-1.49A1.14,1.14,0,0,0,1033.37,164.91Zm-.6,210.67a1.68,1.68,0,1,0,1.72,1.64A1.68,1.68,0,0,0,1032.77,375.58Zm37.77-182.88a1.43,1.43,0,1,0,.8,1.86A1.43,1.43,0,0,0,1070.54,192.7Zm2-162.43a1.35,1.35,0,1,0,.48,1.85A1.35,1.35,0,0,0,1072.58,30.26Zm-5.29,35.67a1.32,1.32,0,1,0-1.26-1.37A1.32,1.32,0,0,0,1067.28,65.94ZM1048.7,369.22a1.47,1.47,0,1,0-1.82,1A1.47,1.47,0,0,0,1048.7,369.22Zm7.92-98a1.14,1.14,0,1,0,.64,1.49A1.14,1.14,0,0,0,1056.63,271.2Zm18,56.21a1.18,1.18,0,1,0,.81,1.45A1.18,1.18,0,0,0,1074.64,327.41ZM1177.51,0h-1.94a1.31,1.31,0,0,0,.92.44A1.3,1.3,0,0,0,1177.51,0Zm-3.18,378.37a1.32,1.32,0,1,0,1.32,1.32A1.32,1.32,0,0,0,1174.33,378.37Zm3.23,56.22a1.34,1.34,0,1,0,1.51,1.14A1.34,1.34,0,0,0,1177.56,434.59ZM866,215.76a1.3,1.3,0,1,0-.79-1.66A1.3,1.3,0,0,0,866,215.76Zm289-48.19a1.14,1.14,0,1,0-.64-1.49A1.14,1.14,0,0,0,1155,167.57Zm7.77-37.52a1.8,1.8,0,1,0,1.62,2A1.8,1.8,0,0,0,1162.79,130Zm-8.09,288a1.05,1.05,0,1,0-1.05-1.05A1.05,1.05,0,0,0,1154.7,418Zm8-36.11a1.59,1.59,0,1,0,1.59,1.59A1.59,1.59,0,0,0,1162.66,381.92Zm27.91-131.32a1.27,1.27,0,1,0,1.24,1.3A1.27,1.27,0,0,0,1190.58,250.6Zm9.91,210.6a1.36,1.36,0,1,0,1.36-1.36A1.36,1.36,0,0,0,1200.49,461.2ZM1204,409a1.59,1.59,0,1,0-1.59,1.59A1.59,1.59,0,0,0,1204,409ZM1200.13,10a1.27,1.27,0,1,0-1.32,1.22A1.27,1.27,0,0,0,1200.13,10Zm3-7.75A1.59,1.59,0,0,0,1204.58,0h-2.92a1.59,1.59,0,0,0,1.46,2.22Zm-1.37,265a1.59,1.59,0,1,0-1.59,1.59A1.59,1.59,0,0,0,1201.75,267.18ZM1134,418.94a1.68,1.68,0,1,0-1.71-1.64A1.68,1.68,0,0,0,1134,418.94Zm-5.32-356.82a1.91,1.91,0,1,0-.73-2.61A1.91,1.91,0,0,0,1128.63,62.12Zm7.37,276a1.73,1.73,0,1,0,1.77,1.69A1.73,1.73,0,0,0,1136,338.16ZM1112,389a1.52,1.52,0,1,0,1,1.87A1.52,1.52,0,0,0,1112,389Zm34-160.27a1.59,1.59,0,1,0-1.55-1.62A1.59,1.59,0,0,0,1146,228.78ZM1157.6,48.26a1.65,1.65,0,1,0,1.57,1.72A1.64,1.64,0,0,0,1157.6,48.26Zm-11.78,297.5a1.26,1.26,0,0,0,.35.86,1.68,1.68,0,1,0,1.31.33,1.26,1.26,0,0,0,.89-1.19,1.27,1.27,0,1,0-2.54,0Zm-4.55,111.14a1.32,1.32,0,1,0,1.32,1.32A1.32,1.32,0,0,0,1141.27,456.9Zm.07-185.78a1.73,1.73,0,1,0-1.48,1.95A1.73,1.73,0,0,0,1141.34,271.12ZM1187.6,77.69A1.44,1.44,0,1,0,1186,79,1.44,1.44,0,0,0,1187.6,77.69ZM931,5.57a1.35,1.35,0,1,0,.48,1.85A1.35,1.35,0,0,0,931,5.57Zm-5.76,431.58a2.53,2.53,0,1,0,1.37,3.3A2.53,2.53,0,0,0,925.22,437.16Zm-18.76-380a1.68,1.68,0,1,0-1-2.14A1.68,1.68,0,0,0,906.46,57.19ZM906.91,162a2,2,0,1,0-2-2A2,2,0,0,0,906.91,162Zm-5,108A3.75,3.75,0,0,0,905,265.8a1.39,1.39,0,1,0-.91-2.06,3.76,3.76,0,1,0-2.18,6.19Zm4.52-140.58a1.59,1.59,0,1,0,1.69-1.49A1.59,1.59,0,0,0,906.43,129.35Zm9.09,39.59a1.74,1.74,0,1,0-2.17,1.16A1.73,1.73,0,0,0,915.52,168.93Zm7.56,81.73a2.23,2.23,0,1,0,2.23-2.23A2.23,2.23,0,0,0,923.08,250.66ZM937.9,136.17a1.35,1.35,0,1,0,.48,1.85A1.35,1.35,0,0,0,937.9,136.17Zm-2,69.13a2.41,2.41,0,1,0,2.41,2.41A2.41,2.41,0,0,0,935.91,205.3Zm-3.79,11.36a1.41,1.41,0,1,0,2-.31A1.41,1.41,0,0,0,932.13,216.66ZM899.91,278a1.93,1.93,0,1,0-1.93-1.93A1.93,1.93,0,0,0,899.91,278Zm18.78,53.54a1.4,1.4,0,1,0,1.64,1.11A1.4,1.4,0,0,0,918.69,331.56ZM924,178.82a2.66,2.66,0,1,0-2.23,3A2.66,2.66,0,0,0,924,178.82ZM885.22,33.15a2.65,2.65,0,1,0-2.65-2.65A2.65,2.65,0,0,0,885.22,33.15Zm-.76,360.8a1.77,1.77,0,1,0-1.61-1.91A1.77,1.77,0,0,0,884.46,393.95Zm2.19-271.68a3.67,3.67,0,1,0,3.67-3.67A3.66,3.66,0,0,0,886.65,122.27Zm6.87,240.58a1.78,1.78,0,1,0-1.75-1.8A1.78,1.78,0,0,0,893.52,362.85Zm58.33,55.49a2.21,2.21,0,1,0,2,2.39A2.21,2.21,0,0,0,951.85,418.34Zm-76.58-69a2.41,2.41,0,1,0,2.41,2.41A2.41,2.41,0,0,0,875.28,349.3Zm4.82-223.78a1.63,1.63,0,1,0-2.08,1A1.63,1.63,0,0,0,880.09,125.52Zm27.65,307.19a2.92,2.92,0,1,0,3.37,2.38A2.92,2.92,0,0,0,907.74,432.71ZM875.32,162.22a1.82,1.82,0,1,0-2.54.4A1.82,1.82,0,0,0,875.32,162.22Zm8.78,75.4a2.48,2.48,0,1,0-2.48,2.48A2.48,2.48,0,0,0,884.1,237.62Zm107.18-76.93a2.12,2.12,0,1,0-2.12-2.12A2.12,2.12,0,0,0,991.28,160.69Zm3.25-77.33a2,2,0,1,0-2-2A2,2,0,0,0,994.53,83.36Zm1.14,157.32a2.56,2.56,0,1,0,2.56,2.56A2.55,2.55,0,0,0,995.67,240.68ZM965.36,138.36a1.56,1.56,0,1,0-1.56-1.56A1.57,1.57,0,0,0,965.36,138.36Zm5.34,210.88a3.78,3.78,0,1,0-3.78,3.78A3.78,3.78,0,0,0,970.7,349.24Zm-5.28,14.9a1.18,1.18,0,1,0-.81-1.45A1.18,1.18,0,0,0,965.42,364.15Zm.95-314.28a1.69,1.69,0,1,0-.6-2.31A1.69,1.69,0,0,0,966.37,49.87ZM1023.68,291a1.56,1.56,0,1,0,1.56,1.56A1.56,1.56,0,0,0,1023.68,291Zm-9-166a1.39,1.39,0,1,0,.93,1.73A1.39,1.39,0,0,0,1014.71,125Zm4.54-11a2,2,0,1,0-2.11,1.86A2,2,0,0,0,1019.25,114Zm-12.08-80.2a2.73,2.73,0,1,0,2.73,2.73A2.73,2.73,0,0,0,1007.17,33.77ZM988.85,357.18a2.49,2.49,0,1,0-2.49,2.49A2.49,2.49,0,0,0,988.85,357.18Zm15.77-229.51a1.43,1.43,0,1,0,.8,1.86A1.43,1.43,0,0,0,1004.62,127.67Zm-29-37.42A1.3,1.3,0,1,0,974,91,1.3,1.3,0,0,0,975.65,90.25ZM965.12,321.93a2.28,2.28,0,1,0-2.08-2.46A2.28,2.28,0,0,0,965.12,321.93ZM943.45,198.07a2,2,0,1,0,2-2A2,2,0,0,0,943.45,198.07ZM940.29,94.84a1.79,1.79,0,1,0-1.19-2.23A1.79,1.79,0,0,0,940.29,94.84ZM563.18,128.7a2.21,2.21,0,1,0-3-1A2.21,2.21,0,0,0,563.18,128.7Zm381.75-6.59A2.88,2.88,0,1,0,942,125,2.88,2.88,0,0,0,944.92,122.11Zm-1-29.86a2.48,2.48,0,1,0-2.48-2.48A2.48,2.48,0,0,0,943.88,92.25Zm36.93,263.16a2,2,0,1,0,2,2A2,2,0,0,0,980.81,355.41Zm-.6,21.44a2,2,0,1,0-2.64,1.1A2,2,0,0,0,980.22,376.85Zm110.22-160.52a1.59,1.59,0,1,0-1.49-1.69A1.59,1.59,0,0,0,1090.44,216.33ZM195.94,393.08a1.49,1.49,0,1,0-1.47-1.5A1.49,1.49,0,0,0,195.94,393.08ZM193.19,63.82A1.15,1.15,0,1,0,192,62.66,1.15,1.15,0,0,0,193.19,63.82Zm3.18,235a1.32,1.32,0,1,0,1.39,1.25A1.32,1.32,0,0,0,196.37,298.85Zm.13-115.13a.81.81,0,1,0,.81.82A.81.81,0,0,0,196.5,183.71Zm-.25-61.36a1,1,0,1,0-1-1A1,1,0,0,0,196.25,122.35Zm1.31,117.82a2.23,2.23,0,1,0,2.23,2.23A2.23,2.23,0,0,0,197.56,240.17Zm2.15-38.25a2.65,2.65,0,1,0-2.65-2.65A2.65,2.65,0,0,0,199.71,201.93ZM248,217.19a1.67,1.67,0,1,0-1.67-1.66A1.66,1.66,0,0,0,248,217.19Zm-4.69-92.49a1.05,1.05,0,1,0-1.05-1.05A1.05,1.05,0,0,0,243.28,124.7Zm1.21,309.14a2,2,0,1,0-1.26,2.56A2,2,0,0,0,244.5,433.84Zm9.28-297.26a1.33,1.33,0,1,0,1.29,1.37A1.33,1.33,0,0,0,253.78,136.59Zm41.36,57.6a3.67,3.67,0,1,0-3.67,3.67A3.66,3.66,0,0,0,295.15,194.18ZM250.61,91.92a2,2,0,1,0-2-2A2,2,0,0,0,250.61,91.92ZM162,419.53a2.52,2.52,0,1,0,3.2,1.58A2.52,2.52,0,0,0,162,419.53ZM168,7.9A2,2,0,1,0,169.91,10,2,2,0,0,0,168,7.9Zm13.27,67.63a1,1,0,1,0-1-1A1,1,0,0,0,181.32,75.53ZM172.42,213a1.58,1.58,0,0,0,1.23.6,1.62,1.62,0,1,0-.69-3.07,2,2,0,1,0-.54,2.47Zm-6.3-110.48a.81.81,0,1,0,.81.82A.81.81,0,0,0,166.12,102.56Zm37.54,35a1.05,1.05,0,1,0-1.05,1.05A1.05,1.05,0,0,0,203.66,137.6ZM174.54,407.29a1.73,1.73,0,1,0-1.86,1.59A1.73,1.73,0,0,0,174.54,407.29Zm1.81,40.46a1.86,1.86,0,1,0,1.84,1.88A1.86,1.86,0,0,0,176.35,447.75ZM206.68,88.49a.82.82,0,1,0,.82.82A.82.82,0,0,0,206.68,88.49Zm-.89,363.39a1.35,1.35,0,1,0,1.59,1.06A1.35,1.35,0,0,0,205.79,451.89ZM190,160.09a1.29,1.29,0,1,0,1.3,1.29A1.29,1.29,0,0,0,190,160.09Zm14.76,177.56a2,2,0,1,0-1.9-2.15A2,2,0,0,0,204.77,337.65Zm.94-263.05a2.73,2.73,0,1,0,2.73,2.73A2.73,2.73,0,0,0,205.71,74.6ZM186.49,115a.89.89,0,1,0-.89-.89A.89.89,0,0,0,186.49,115Zm-.44,310.29a1.57,1.57,0,1,0,1.67-1.48A1.57,1.57,0,0,0,186.05,425.31Zm90-400.77a1.3,1.3,0,1,0,1.3,1.3A1.3,1.3,0,0,0,276.07,24.54Zm3,195.43a1.38,1.38,0,1,0,1.33,1.42A1.37,1.37,0,0,0,279.07,220Zm5.84-152a1.6,1.6,0,1,0-.44-2.1,2,2,0,1,0,.44,2.1Zm-15.76,213.5a1.07,1.07,0,1,0,1,1.1A1.07,1.07,0,0,0,269.15,281.44Zm-7.68-140.82A2.48,2.48,0,1,0,259,143.1,2.48,2.48,0,0,0,261.46,140.62Zm.36,312.25a1.92,1.92,0,1,0,1.9,1.94A1.91,1.91,0,0,0,261.82,452.87ZM285,268.09a2.79,2.79,0,1,0,2.79,2.79A2.79,2.79,0,0,0,285,268.09Zm-14,85.49a1.1,1.1,0,1,0,1.42.62A1.1,1.1,0,0,0,271,353.58ZM294.54,324a2.6,2.6,0,1,0-3.3-1.62A2.6,2.6,0,0,0,294.54,324Zm-3.22-178.71a2.88,2.88,0,1,0-2.88-2.88A2.88,2.88,0,0,0,291.32,145.33Zm7.24,32.74a1.59,1.59,0,1,0-1.49-1.69A1.59,1.59,0,0,0,298.56,178.07ZM220.9,60.36a1,1,0,1,0,1-1A1,1,0,0,0,220.9,60.36ZM232.71,174a1.07,1.07,0,1,0,1,1.1A1.07,1.07,0,0,0,232.71,174Zm-3,167.24a2.12,2.12,0,1,0,2.12,2.12A2.12,2.12,0,0,0,229.73,341.23Zm5.42-324a1.32,1.32,0,1,0-1.37,1.26A1.32,1.32,0,0,0,235.15,17.22Zm4.59,272.71a1.29,1.29,0,1,0-1.29,1.29A1.29,1.29,0,0,0,239.74,289.93ZM236.07,403.3a1.38,1.38,0,1,0,1.7.95A1.38,1.38,0,0,0,236.07,403.3Zm1.09-231.76a.82.82,0,1,0-.82-.82A.82.82,0,0,0,237.16,171.54ZM214,114a1.61,1.61,0,1,0,1.62,1.61A1.61,1.61,0,0,0,214,114Zm10.29,223.45a1.86,1.86,0,1,0,1.84,1.88A1.86,1.86,0,0,0,224.29,337.42Zm-6.56-119.68a1.33,1.33,0,1,0-1.29-1.37A1.33,1.33,0,0,0,217.73,217.74Zm11.56,78.38a3.65,3.65,0,1,0-3,4.22A3.65,3.65,0,0,0,229.28,296.12ZM222.11,44.63a1.59,1.59,0,1,0-1.49-1.69A1.59,1.59,0,0,0,222.11,44.63ZM241.7,265.08a1.09,1.09,0,1,0-1.3-.83A1.09,1.09,0,0,0,241.7,265.08ZM88.69,2.74A1.64,1.64,0,1,0,90,4.68,1.64,1.64,0,0,0,88.69,2.74Zm-1.47,445a1.59,1.59,0,1,0,1.32,1.82A1.59,1.59,0,0,0,87.22,447.72ZM85.87,231.79a1.29,1.29,0,1,0-1.3-1.29A1.29,1.29,0,0,0,85.87,231.79Zm-22,193.11a1.27,1.27,0,1,0,.87-1.58A1.27,1.27,0,0,0,63.88,424.9ZM81,71.89a.89.89,0,1,0,.89.89A.89.89,0,0,0,81,71.89ZM63.71,75.33a1.27,1.27,0,1,0-1-1.51A1.27,1.27,0,0,0,63.71,75.33Zm4.07,279.74a1.32,1.32,0,1,0,1.39,1.25A1.32,1.32,0,0,0,67.78,355.07Zm5.69-191.6a1.4,1.4,0,1,0,1.42-1.37A1.4,1.4,0,0,0,73.47,163.47Zm1.36-50.34a1.67,1.67,0,1,0-1.67,1.67A1.66,1.66,0,0,0,74.83,113.14Zm2.11-74.94a1.72,1.72,0,1,0-1.72-1.72A1.72,1.72,0,0,0,76.94,38.19ZM74.79,210.24A1.27,1.27,0,1,0,76.06,209,1.27,1.27,0,0,0,74.79,210.24Zm3.29-62.5A1.27,1.27,0,1,0,76.81,149,1.27,1.27,0,0,0,78.08,147.74ZM80.46,12.4A1.59,1.59,0,1,0,79,10.66,1.59,1.59,0,0,0,80.46,12.4Zm5.87,173a1.27,1.27,0,1,0-1.13-1.4A1.27,1.27,0,0,0,86.32,185.38Zm-44.7-50A2.65,2.65,0,1,0,39,132.71,2.65,2.65,0,0,0,41.63,135.36Zm4,233.76A1.59,1.59,0,1,0,46.89,371,1.59,1.59,0,0,0,45.61,369.12Zm1160.83,38.11a1.26,1.26,0,0,0,1.12,1.24V406A1.26,1.26,0,0,0,1206.44,407.23ZM32.66,101.24a1.59,1.59,0,0,0-1.42-1.75c-.05,0-.1,0-.15,0v3.13A1.58,1.58,0,0,0,32.66,101.24ZM52.24,54.45A1.27,1.27,0,1,0,51.1,53,1.27,1.27,0,0,0,52.24,54.45Zm6.56,8.41a1.59,1.59,0,1,0-1.59-1.59A1.59,1.59,0,0,0,58.79,62.86ZM56,219.73A1.75,1.75,0,1,0,54.3,218,1.75,1.75,0,0,0,56,219.73ZM141.78,59a1.12,1.12,0,1,0,1.12,1.12A1.12,1.12,0,0,0,141.78,59Zm3,171.3a1.07,1.07,0,1,0-1-1.1A1.07,1.07,0,0,0,144.78,230.31Zm.43,228.59A1.32,1.32,0,1,0,144,460.3,1.32,1.32,0,0,0,145.21,458.91Zm1-159.66a1.68,1.68,0,1,0,1.54,1.8A1.68,1.68,0,0,0,146.18,299.25Zm-21.62,3.12a1.4,1.4,0,1,0,1.37,1.42A1.4,1.4,0,0,0,124.56,302.36Zm3.12,154.45a1.74,1.74,0,1,0,2,1.36A1.73,1.73,0,0,0,127.68,456.81Zm10.59-233.4a1.8,1.8,0,1,0-1.84,1.77A1.8,1.8,0,0,0,138.27,223.42ZM117.49,345a1.34,1.34,0,1,0,1.23,1.44A1.34,1.34,0,0,0,117.49,345Zm37.21-209.66a1,1,0,1,0,1-1A1,1,0,0,0,154.71,135.29ZM153.18,26a.89.89,0,1,0-.89-.89A.89.89,0,0,0,153.18,26ZM155,46.46a1.33,1.33,0,1,0-1.33,1.33A1.33,1.33,0,0,0,155,46.46Zm1.93,368.13a1.77,1.77,0,1,0,2.19,1.22A1.77,1.77,0,0,0,156.94,414.59ZM140.69,133.72a.82.82,0,1,0-.82-.82A.82.82,0,0,0,140.69,133.72ZM137,265.25a1.57,1.57,0,1,0,1.67-1.48A1.57,1.57,0,0,0,137,265.25ZM103.6,114.46a1.76,1.76,0,0,0-.1-.6,1.64,1.64,0,1,0-1.62-1.8,1.65,1.65,0,0,0,.06.63h-.06a1.75,1.75,0,1,0,1.72,1.78ZM100.34,146a.82.82,0,1,0,.82.82A.82.82,0,0,0,100.34,146Zm-4,249.62a1.68,1.68,0,1,0,1.54,1.8A1.68,1.68,0,0,0,96.34,395.63ZM92,202.38a1.33,1.33,0,1,0,1.33,1.33A1.33,1.33,0,0,0,92,202.38Zm28.26,166.38a1.65,1.65,0,1,0,1.74,1.56A1.65,1.65,0,0,0,120.29,368.76Zm-3.61-194.41a2.12,2.12,0,1,0-2.12-2.12A2.12,2.12,0,0,0,116.69,174.36Zm-1,26.42a2.79,2.79,0,1,0,2.79-2.79A2.79,2.79,0,0,0,115.72,200.78Zm-1.08,126.87a2,2,0,1,0-1.85-2.08A2,2,0,0,0,114.64,327.65Zm5.46-31.56a1.7,1.7,0,1,0-1.79-1.61A1.7,1.7,0,0,0,120.11,296.09ZM344,25.21a1.33,1.33,0,1,0-1.33-1.33A1.33,1.33,0,0,0,344,25.21ZM487.16,77.14a1.6,1.6,0,1,0,2,1A1.6,1.6,0,0,0,487.16,77.14ZM467.33,409a1.6,1.6,0,1,0,.4,2.23A1.6,1.6,0,0,0,467.33,409ZM478,347.5a1.76,1.76,0,1,0-2.37-.77A1.76,1.76,0,0,0,478,347.5Zm-4.2-8.65a1.52,1.52,0,1,0-2.08-.54A1.52,1.52,0,0,0,473.78,338.85Zm-4.94-30.55a1.58,1.58,0,1,0,2.16.57A1.58,1.58,0,0,0,468.84,308.3Zm31.72,63.14a1,1,0,1,0,1.42.34A1,1,0,0,0,500.56,371.44ZM498.89,10.5a1.18,1.18,0,1,0-1.45.81A1.18,1.18,0,0,0,498.89,10.5Zm-16.22,157a1.34,1.34,0,1,0,1.8.56A1.34,1.34,0,0,0,482.67,167.51Zm17.75,234.14a1.18,1.18,0,1,0-1.62-.42A1.18,1.18,0,0,0,500.41,401.66ZM484.19,116.75a1.67,1.67,0,1,0-2.25-.7A1.67,1.67,0,0,0,484.19,116.75ZM494.42,41.6a2.53,2.53,0,1,0,1.37,3.3A2.53,2.53,0,0,0,494.42,41.6Zm-1.2,182.8a1.67,1.67,0,1,0-2.25-.71A1.67,1.67,0,0,0,493.22,224.41Zm-.84,158.77a1.77,1.77,0,1,0,2.37.77A1.77,1.77,0,0,0,492.37,383.17Zm-38.31,4.4a1.32,1.32,0,1,0-.38,1.83A1.32,1.32,0,0,0,454.07,387.57ZM434.33,72.4a1.48,1.48,0,1,0-1.73-1.18A1.48,1.48,0,0,0,434.33,72.4ZM458,257.62a1.27,1.27,0,1,0,1.73.46A1.27,1.27,0,0,0,458,257.62Zm-21.16,80a2,2,0,1,0-2,2A2,2,0,0,0,436.88,337.62Zm1.17-32.32a1.32,1.32,0,1,0-1.83-.38A1.32,1.32,0,0,0,438.05,305.3Zm-2-118.36a3.76,3.76,0,1,0-4.35-3.07A3.76,3.76,0,0,0,436.07,186.94Zm14.77,48.6a1.5,1.5,0,1,0-1.7-1.26A1.5,1.5,0,0,0,450.84,235.54ZM463,5.59a1.35,1.35,0,1,0,1.58,1.06A1.35,1.35,0,0,0,463,5.59Zm-1.17,56.8a1.56,1.56,0,1,0-1.56-1.57A1.57,1.57,0,0,0,461.79,62.39ZM459.38,349.5a3.65,3.65,0,1,0-3,4.22A3.65,3.65,0,0,0,459.38,349.5Zm-2-140a1.58,1.58,0,1,0-2.16-.57A1.58,1.58,0,0,0,457.36,209.49Zm42.16,120.83a1.29,1.29,0,1,0-.43,1.78A1.29,1.29,0,0,0,499.52,330.32Zm7.22-278.73a1.38,1.38,0,1,0-1.7-.95A1.38,1.38,0,0,0,506.73,51.59Zm3.61,361.09a1.29,1.29,0,1,0,1.78.43A1.29,1.29,0,0,0,510.35,412.68Zm-3.86-126.42a3.67,3.67,0,1,0,3.67-3.67A3.66,3.66,0,0,0,506.49,286.26Zm-.34,72.22a1.36,1.36,0,1,0-1.89-.39A1.36,1.36,0,0,0,506.15,358.49Zm5.06,77.59a1.27,1.27,0,1,0-1.79,0A1.27,1.27,0,0,0,511.21,436.08Zm11-318.5a3.78,3.78,0,1,0-3.78,3.78A3.78,3.78,0,0,0,522.24,117.58ZM560.59,361a1.59,1.59,0,1,0,0,2.24A1.59,1.59,0,0,0,560.59,361ZM520.93,211.64a2.41,2.41,0,1,0-2.41-2.41A2.41,2.41,0,0,0,520.93,211.64Zm40,203.47a.55.55,0,1,0,.67.4A.55.55,0,0,0,560.89,415.11Zm-2.38-276.33a1.5,1.5,0,1,0-1.7-1.26A1.5,1.5,0,0,0,558.51,138.78Zm1.19,59.37a1.76,1.76,0,1,0,.77-2.37A1.76,1.76,0,0,0,559.7,198.15ZM562.62,384a1.33,1.33,0,1,0,1.83.44A1.33,1.33,0,0,0,562.62,384Zm.8-39a1.27,1.27,0,1,0-1.73-.46A1.27,1.27,0,0,0,563.42,345Zm-44.63,113a1.24,1.24,0,1,0,1.73-.31A1.24,1.24,0,0,0,518.79,458.06Zm7.61-357.43a2.49,2.49,0,1,0-2.49-2.49A2.49,2.49,0,0,0,526.4,100.63Zm11.23-62a1.47,1.47,0,1,0-1-1.82A1.47,1.47,0,0,0,537.62,38.63Zm-8.12-5.27a1.85,1.85,0,1,0-2.17-1.48A1.85,1.85,0,0,0,529.5,33.36Zm7.73,281a1.27,1.27,0,1,0,0,1.79A1.27,1.27,0,0,0,537.23,314.36ZM533,277a1.63,1.63,0,1,0,.59-2.23A1.63,1.63,0,0,0,533,277Zm-4,145a1.92,1.92,0,1,0-2.55-.93A1.92,1.92,0,0,0,529,422Zm-3-11.13a.55.55,0,1,0-.67-.4A.55.55,0,0,0,526,410.91Zm.65-309.2a2,2,0,1,0,2,2A2,2,0,0,0,526.6,101.7Zm3.7,87.47a1.78,1.78,0,1,0,1.76,1.8A1.78,1.78,0,0,0,530.31,189.18Zm-9.54,76.28a1.59,1.59,0,1,0,2.24,0A1.58,1.58,0,0,0,520.76,265.45Zm9-39.51a2,2,0,1,0,2.56,1.26A2,2,0,0,0,529.79,225.95Zm2.11-106.06a1.18,1.18,0,1,0-.81-1.45A1.18,1.18,0,0,0,531.91,119.89ZM533.15,412a1.06,1.06,0,1,0-.3,1.46A1.06,1.06,0,0,0,533.15,412ZM367.28,141a2,2,0,1,0-2-2A2,2,0,0,0,367.28,141ZM351.44,423.1a1.18,1.18,0,1,0,1.62.42A1.18,1.18,0,0,0,351.44,423.1Zm7.61,29.48a1.93,1.93,0,1,0-2.19-1.62A1.93,1.93,0,0,0,359.05,452.58ZM336.29,330a2.92,2.92,0,1,0,3.37,2.38A2.92,2.92,0,0,0,336.29,330ZM561.45,189.13a1.72,1.72,0,1,0,2.32.73A1.72,1.72,0,0,0,561.45,189.13ZM378,286.23a1.09,1.09,0,1,0-1.3-.83A1.09,1.09,0,0,0,378,286.23Zm-8.12,94.47a1.55,1.55,0,1,0,.39,2.16A1.55,1.55,0,0,0,369.85,380.7Zm1.86-329.59a2,2,0,1,0-2-2A2,2,0,0,0,371.71,51.11Zm5.22,95.06a2.41,2.41,0,1,0,2.41,2.41A2.41,2.41,0,0,0,376.93,146.17Zm-3.51,75.77a1.4,1.4,0,1,0-1.06,1.67A1.4,1.4,0,0,0,373.41,221.94ZM313.51,21.12a1.44,1.44,0,1,0-1.57,1.29A1.44,1.44,0,0,0,313.51,21.12Zm.87,401.49a2.23,2.23,0,1,0,2.23-2.23A2.23,2.23,0,0,0,314.38,422.62Zm-.89-234.12a1.09,1.09,0,1,0,.82-1.3A1.09,1.09,0,0,0,313.48,188.5ZM310,231.55a1.36,1.36,0,1,0,1.62,1A1.36,1.36,0,0,0,310,231.55Zm-2.42-112.41A1.56,1.56,0,1,0,306,120.7,1.56,1.56,0,0,0,307.57,119.14ZM321,433a1.47,1.47,0,1,0,1.47,1.47A1.47,1.47,0,0,0,321,433Zm14.65-118.71a1.37,1.37,0,1,0-1.77-.78A1.37,1.37,0,0,0,335.65,314.25Zm-9.4-166.68a1.36,1.36,0,1,0-1.62-1A1.36,1.36,0,0,0,326.25,147.57Zm11.63,78a1.37,1.37,0,1,0-1.78-.78A1.37,1.37,0,0,0,337.88,225.58Zm-4.35,41.92a1.1,1.1,0,1,0-.62,1.42A1.09,1.09,0,0,0,333.53,267.5Zm-4.35-91.9a2,2,0,1,0,2,2A2,2,0,0,0,329.18,175.6Zm-1.4-80.27a2.12,2.12,0,1,0-2.12-2.12A2.12,2.12,0,0,0,327.78,95.34Zm-1.22,340.42a2.52,2.52,0,1,0-3.2-1.58A2.52,2.52,0,0,0,326.56,435.76Zm69-141.58a1.41,1.41,0,1,0-1.83-.8A1.41,1.41,0,0,0,395.52,294.18Zm-.21-42.39a2.93,2.93,0,1,0-2.93-2.93A2.93,2.93,0,0,0,395.31,251.79ZM422,281.14a1.34,1.34,0,1,0-.56,1.8A1.34,1.34,0,0,0,422,281.14Zm-2.12-119.72a2.23,2.23,0,1,0-2.23-2.23A2.23,2.23,0,0,0,419.87,161.42ZM389.43,247a1.56,1.56,0,1,0-1.56-1.56A1.56,1.56,0,0,0,389.43,247Zm1.69,180.14a1.24,1.24,0,1,0-.31-1.73A1.24,1.24,0,0,0,391.12,427.13Zm51.21-81.41a1.06,1.06,0,1,0-.3,1.47A1.06,1.06,0,0,0,442.33,345.72Zm3-159.19a1.93,1.93,0,1,0-1.93-1.93A1.93,1.93,0,0,0,445.3,186.52Zm.12,261a1.5,1.5,0,1,0,1.7,1.26A1.5,1.5,0,0,0,445.42,447.55Zm-38.59-242.2a2.48,2.48,0,1,0-2.48-2.48A2.48,2.48,0,0,0,406.83,205.35ZM408,296.49a2,2,0,1,0,2.56,1.26A2,2,0,0,0,408,296.49ZM383.87,11a2,2,0,1,0-1.28,2.51A2,2,0,0,0,383.87,11Zm28.57,75.22A2.56,2.56,0,1,0,415,88.83,2.55,2.55,0,0,0,412.44,86.27Zm1.06,284.06a1.48,1.48,0,1,0-2-.52A1.47,1.47,0,0,0,413.5,370.33Zm-12.2-48.17a1.18,1.18,0,1,0,.42-1.62A1.18,1.18,0,0,0,401.3,322.16ZM410,353.61a1.1,1.1,0,1,0,1.42.62A1.1,1.1,0,0,0,410,353.61Zm-12.29,67.58a2.28,2.28,0,1,0-3.06-1A2.27,2.27,0,0,0,397.69,421.19Zm3.71-147.56a1.48,1.48,0,1,0-.53,2A1.48,1.48,0,0,0,401.4,273.62Zm.38,167.58a1.06,1.06,0,1,0-1.46-.3A1.06,1.06,0,0,0,401.77,441.2Zm3.61-73.46a1.27,1.27,0,1,0-.46,1.73A1.26,1.26,0,0,0,405.38,367.74Z" transform="translate(-8.44 0)"/><path class="cls-2" d="M595.61,197.45a1.91,1.91,0,1,0,2.28,1.45A1.91,1.91,0,0,0,595.61,197.45Zm3.77-180H595.7a2.43,2.43,0,0,0,3.68,0ZM727.46,76.16a.88.88,0,1,0-.88-.88A.88.88,0,0,0,727.46,76.16ZM601.1,63.94A1.17,1.17,0,1,0,600,62.75,1.17,1.17,0,0,0,601.1,63.94Zm-2,191a1.36,1.36,0,1,0,1.87.49A1.36,1.36,0,0,0,599.08,255Zm-6.45,76a2.34,2.34,0,1,0,3.16,1A2.34,2.34,0,0,0,592.63,330.93Zm45.3-24.52a1.9,1.9,0,1,0-2.56-.83A1.9,1.9,0,0,0,637.93,306.41ZM627.5,25.48a1.7,1.7,0,1,0,1.59,1.8A1.7,1.7,0,0,0,627.5,25.48ZM611.3,427.9a3.54,3.54,0,1,0,4.49,2.21A3.54,3.54,0,0,0,611.3,427.9ZM603,177.13a1.18,1.18,0,1,0-1.53-.67A1.18,1.18,0,0,0,603,177.13Zm8.59-13.4a.89.89,0,1,0,.92-.87A.89.89,0,0,0,611.62,163.73Zm-6.7-64.62a2.26,2.26,0,1,0-2.27-2.26A2.26,2.26,0,0,0,604.92,99.11ZM580.13,437.63a1.48,1.48,0,1,0-.64,2A1.48,1.48,0,0,0,580.13,437.63Zm38.57-66a1.12,1.12,0,1,0-1.51-.47A1.12,1.12,0,0,0,618.7,371.65ZM607.12,233.24a.91.91,0,1,0,1.09.69A.91.91,0,0,0,607.12,233.24ZM604.6,350.11a2.62,2.62,0,1,0,3,2.21A2.62,2.62,0,0,0,604.6,350.11Zm5.57-210a1.08,1.08,0,1,0-1.08,1.08A1.08,1.08,0,0,0,610.16,140.1Zm0-10.29a1.87,1.87,0,1,0-1.81-1.93A1.87,1.87,0,0,0,610.2,129.81Zm8.1,271.57a1.25,1.25,0,1,0-1.05,1.42A1.25,1.25,0,0,0,618.3,401.38ZM720.44,78.82A1.57,1.57,0,1,0,722,80.39,1.57,1.57,0,0,0,720.44,78.82ZM699.68,308.29a1.61,1.61,0,1,0,1.83,1.36A1.61,1.61,0,0,0,699.68,308.29Zm-15-163.8a.68.68,0,1,0,.68.68A.68.68,0,0,0,684.71,144.49Zm6.67-73.68a1.39,1.39,0,1,0,1.4,1.39A1.39,1.39,0,0,0,691.38,70.81Zm38.81,318.13a1.24,1.24,0,1,0,1.45,1A1.24,1.24,0,0,0,730.19,388.94Zm0-38.19a2.18,2.18,0,1,0-1.36,2.76A2.18,2.18,0,0,0,730.18,350.76ZM716.09,339.7a2.6,2.6,0,1,0,3,2.07A2.6,2.6,0,0,0,716.09,339.7Zm-54.2-69.27a1.44,1.44,0,1,0-1.94-.61A1.44,1.44,0,0,0,661.89,270.43Zm-.69,168.42A3.16,3.16,0,1,0,658,442,3.16,3.16,0,0,0,661.2,438.85Zm1.71-274.37a1.17,1.17,0,1,0-1.4-.89A1.17,1.17,0,0,0,662.91,164.48ZM682.41,40a1.06,1.06,0,1,0-1.17.95A1.06,1.06,0,0,0,682.41,40Zm-5.86,338.78a3.15,3.15,0,1,0,3.64,2.57A3.15,3.15,0,0,0,676.55,378.78Zm4.61-268.83a1.15,1.15,0,1,0,1.19-1.11A1.15,1.15,0,0,0,681.16,109.95Zm1,6.42a1.43,1.43,0,1,0,1.43,1.43A1.43,1.43,0,0,0,682.13,116.37Zm-9.25-27.09a1.43,1.43,0,1,0,1.43,1.43A1.43,1.43,0,0,0,672.88,89.28Zm2.57,29.4a.68.68,0,1,0-.68-.68A.68.68,0,0,0,675.45,118.68ZM516.92,336.25a.88.88,0,1,0-.25,1.23A.89.89,0,0,0,516.92,336.25Zm3.25-283a2.76,2.76,0,1,0-2.59-2.92A2.76,2.76,0,0,0,520.17,53.29Zm-.73,10.12a2.77,2.77,0,1,0-2.69-2.86A2.77,2.77,0,0,0,519.44,63.42Zm-1.21,392.94a.37.37,0,1,0,.45.27A.37.37,0,0,0,518.23,456.36Zm7.23-85.7a2.77,2.77,0,1,0-1.9,3.43A2.77,2.77,0,0,0,525.46,370.66Zm-4.67-267.28a1.32,1.32,0,1,0,1.39-1.24A1.32,1.32,0,0,0,520.79,103.39Zm.05,111.5a1.32,1.32,0,1,0-1.31,1.34A1.32,1.32,0,0,0,520.85,214.88Zm-4.19-53a2.77,2.77,0,1,0-2.74,2.81A2.77,2.77,0,0,0,516.65,161.93Zm.1,127.18a1.81,1.81,0,1,0-1.42,2.13A1.81,1.81,0,0,0,516.75,289.11Zm10.09,5.39a1.12,1.12,0,1,0-1.54-.37A1.12,1.12,0,0,0,526.84,294.5Zm-5.28-180.77a1.32,1.32,0,1,0,1.36-1.28A1.32,1.32,0,0,0,521.56,113.73Zm2.73,200a1,1,0,1,0,.35-1.35A1,1,0,0,0,524.29,313.69Zm-55-44.81A2,2,0,1,0,467,267.3,2,2,0,0,0,469.3,268.88Zm1.9-43.68a1.34,1.34,0,1,0-1.87.33A1.34,1.34,0,0,0,471.2,225.2Zm29.66,54a2.07,2.07,0,1,0,2.83.74A2.07,2.07,0,0,0,500.85,279.21Zm44.72,106.24a3.09,3.09,0,1,0,4.16,1.35A3.09,3.09,0,0,0,545.57,385.45Zm-5.52,49a1.77,1.77,0,1,0-1.67,1.86A1.77,1.77,0,0,0,540.06,434.46Zm1.05-214.11a1.92,1.92,0,1,0,2.49,1.09A1.92,1.92,0,0,0,541.11,220.34Zm1.56,34a1.14,1.14,0,1,0-1.58-.32A1.14,1.14,0,0,0,542.67,254.31Zm-.78,165.39a1.32,1.32,0,1,0,1.64.91A1.32,1.32,0,0,0,541.9,419.71Zm-1.79-2.28a1.06,1.06,0,1,0,0,1.5A1.06,1.06,0,0,0,540.11,417.42ZM572.33,21a1.45,1.45,0,1,0,1.33,1.56A1.45,1.45,0,0,0,572.33,21ZM539.7,427a.47.47,0,1,0,.58.34A.48.48,0,0,0,539.7,427Zm19.7-204.19a1.27,1.27,0,1,0-1.74-.45A1.27,1.27,0,0,0,559.4,222.77Zm-.64,33.13a.92.92,0,1,0-1.19-.52A.92.92,0,0,0,558.76,255.9ZM563.82,355a1.06,1.06,0,1,0-1.45-.38A1.06,1.06,0,0,0,563.82,355Zm-14-41.9a1.37,1.37,0,1,0,1.93,0A1.37,1.37,0,0,0,549.86,313.07Zm-41.5,79.1a2.22,2.22,0,1,0-3.14,0A2.22,2.22,0,0,0,508.36,392.16Zm38-243.8a1.32,1.32,0,1,0,1.36-1.29A1.32,1.32,0,0,0,546.32,148.36Zm-7.08-78.24a1.6,1.6,0,1,0-1.59-1.62A1.6,1.6,0,0,0,539.23,70.13Zm-1.81,247.39a2.22,2.22,0,1,0,3,.8A2.22,2.22,0,0,0,537.42,317.52ZM544,98.06a2.77,2.77,0,1,0-2.7-2.85A2.77,2.77,0,0,0,544,98.06Zm3.83-22.77A1.78,1.78,0,1,0,546,73.51,1.78,1.78,0,0,0,547.8,75.29Zm-4.05-54.45A1.75,1.75,0,1,0,542,19.09,1.75,1.75,0,0,0,543.75,20.84Zm472.53,99.88a1.51,1.51,0,1,0,1.08,1.84A1.51,1.51,0,0,0,1016.28,120.72Zm22.51,119.49a3,3,0,1,0,4,1.52A3,3,0,0,0,1038.79,240.21ZM1028.58,63.09a3.16,3.16,0,1,0-3.85,2.27A3.16,3.16,0,0,0,1028.58,63.09Zm39.77,229.25a1.45,1.45,0,1,0,1.92.73A1.45,1.45,0,0,0,1068.35,292.34Zm-22.19-177.15a2,2,0,1,0,.69,2.67A1.95,1.95,0,0,0,1046.16,115.19Zm35.24-50.3a1.5,1.5,0,1,0-1.38-1.62A1.5,1.5,0,0,0,1081.4,64.89Zm-183,73.76a1.51,1.51,0,1,0,.54,2.07A1.51,1.51,0,0,0,898.38,138.65ZM925,82.14a3.17,3.17,0,1,0,1.12,4.34A3.17,3.17,0,0,0,925,82.14ZM1081.65,0h-2a3.16,3.16,0,1,0,2,0ZM913,96.65a1.71,1.71,0,1,0,1.54,1.86A1.71,1.71,0,0,0,913,96.65ZM478.34,348a1.81,1.81,0,1,0-2.49-.6A1.81,1.81,0,0,0,478.34,348ZM964,446.3a1.8,1.8,0,1,0,2,1.54A1.8,1.8,0,0,0,964,446.3ZM984.84,45.18a1.45,1.45,0,1,0-1.45,1.45A1.45,1.45,0,0,0,984.84,45.18Zm22.09,364.31a3.85,3.85,0,1,0,3.51,4.17A3.85,3.85,0,0,0,1006.92,409.48Zm-25.61-15.05a1.8,1.8,0,1,0,1.84,1.76A1.8,1.8,0,0,0,981.31,394.43ZM985.39,271a1.71,1.71,0,1,0,1.71,1.71A1.71,1.71,0,0,0,985.39,271Zm170,75.73a1.49,1.49,0,1,0,0-2.11A1.49,1.49,0,0,0,1155.39,346.78Zm-2.84-265.19a1.33,1.33,0,1,0,1.54-1.08A1.33,1.33,0,0,0,1152.54,81.59Zm-2-20.17a1.94,1.94,0,1,0-1.39-2.37A1.94,1.94,0,0,0,1150.5,61.42ZM1157.06,382a2.37,2.37,0,1,0,2.16,2.57A2.37,2.37,0,0,0,1157.06,382Zm1.5-356.2a2.78,2.78,0,1,0,2.26,3.22A2.78,2.78,0,0,0,1158.56,25.84Zm38.65,122a1.5,1.5,0,1,0,1.82,1.1A1.5,1.5,0,0,0,1197.21,147.84ZM723.27,111.07a.75.75,0,1,0-.75-.75A.75.75,0,0,0,723.27,111.07Zm483.49,230.07a3.35,3.35,0,0,0,.81,6.33v-6.57A3.3,3.3,0,0,0,1206.75,341.13Zm-34.58-140.52a1.92,1.92,0,1,0-2.72,0A1.92,1.92,0,0,0,1172.18,200.61Zm-1.25,243.46a3,3,0,1,0,4,1.46A3,3,0,0,0,1170.93,444.07Zm-62.87-138.78a3.12,3.12,0,1,0,4.42,0A3.12,3.12,0,0,0,1108.05,305.29Zm-5.24,137.52a3,3,0,1,0-3.57-2.42A3,3,0,0,0,1102.81,442.81Zm12.74-246.19a2.44,2.44,0,1,0-1.79,3A2.44,2.44,0,0,0,1115.55,196.62Zm22.38-97.73a2.33,2.33,0,1,0,1.39,3A2.33,2.33,0,0,0,1137.92,98.89Zm-11.14,45.9a1.11,1.11,0,1,0-1.43.66A1.11,1.11,0,0,0,1126.79,144.79Zm2.08,97.84a1.17,1.17,0,1,0-1.41-.85A1.17,1.17,0,0,0,1128.87,242.63Zm2.75-79.1a1.87,1.87,0,1,0,2.47.93A1.87,1.87,0,0,0,1131.62,163.53Zm-354,294.8a2.31,2.31,0,1,0,2.43,2.18A2.31,2.31,0,0,0,777.62,458.33Zm-1-58.18a1.13,1.13,0,1,0-.88,1.33A1.13,1.13,0,0,0,776.59,400.15ZM780.3,64.43a1,1,0,1,0-1-1A1,1,0,0,0,780.3,64.43Zm3.84,57.15a2.28,2.28,0,1,0-2.28,2.28A2.28,2.28,0,0,0,784.14,121.59Zm32.8-98.79a1.06,1.06,0,1,0-1.29.77A1.06,1.06,0,0,0,816.94,22.8Zm-7.73,274.95a1.6,1.6,0,1,0-1.87-1.27A1.6,1.6,0,0,0,809.21,297.74Zm8.68-107.32a1.72,1.72,0,1,0-2.17-1.1A1.72,1.72,0,0,0,817.89,190.42ZM820,338.16a1.48,1.48,0,1,0-1,1.83A1.48,1.48,0,0,0,820,338.16Zm-34.4-172a1.08,1.08,0,0,0,1.45-1,1.09,1.09,0,0,0-1.88-.74,2.33,2.33,0,1,0,.44,1.76Zm-29-141a1.06,1.06,0,1,0,.82,1.26A1.06,1.06,0,0,0,756.65,25.2ZM746.79,301a1.33,1.33,0,1,0-1.68-.86A1.33,1.33,0,0,0,746.79,301Zm7.31,132a1.15,1.15,0,1,0-1.42-.79A1.15,1.15,0,0,0,754.09,433Zm-17.71-46.56a2.41,2.41,0,1,0,3,1.66A2.41,2.41,0,0,0,736.38,386.42Zm-8.65-136.77a2.8,2.8,0,1,0-1.79,3.52A2.79,2.79,0,0,0,727.73,249.65Zm9.15-146.44a.88.88,0,1,0-.88-.88A.88.88,0,0,0,736.88,103.21Zm50.63,106a1.11,1.11,0,1,0,1.11,1.11A1.11,1.11,0,0,0,787.52,209.22ZM762,354.66a2.36,2.36,0,1,0,2.78,1.85A2.36,2.36,0,0,0,762,354.66ZM851.21,173a1.06,1.06,0,1,0,1.1-1A1.06,1.06,0,0,0,851.21,173Zm17.84-74.67a1.4,1.4,0,1,0-1.4-1.4A1.4,1.4,0,0,0,869.05,98.35Zm3.26,40.91a1.43,1.43,0,1,0,1.43,1.43A1.43,1.43,0,0,0,872.31,139.25Zm-.1,60.57a1.06,1.06,0,1,0,1,1.09A1.06,1.06,0,0,0,872.21,199.82ZM868.15,421a1.06,1.06,0,1,0-1.32-.73A1.06,1.06,0,0,0,868.15,421Zm1.89,6.35a2.93,2.93,0,1,0,3,2.87A2.93,2.93,0,0,0,870,427.37Zm-.81-267a2.23,2.23,0,1,0-2.17-2.29A2.23,2.23,0,0,0,869.23,160.42Zm10.16,139.52a2.77,2.77,0,1,0,2.77,2.77A2.77,2.77,0,0,0,879.39,299.94Zm-2.69,93.38a1.71,1.71,0,1,0,1.71,1.71A1.71,1.71,0,0,0,876.7,393.32Zm-26.06-139a1.06,1.06,0,1,0-1.05,1.08A1.06,1.06,0,0,0,850.64,254.33ZM884.39,357a1.32,1.32,0,1,0-1.32-1.32A1.32,1.32,0,0,0,884.39,357Zm-32.8,21a2.23,2.23,0,1,0,2.76,1.53A2.23,2.23,0,0,0,851.59,378Zm.22-247.62a2.23,2.23,0,1,0-2.3,2.16A2.23,2.23,0,0,0,851.81,130.41Zm14.28,300.42a1.42,1.42,0,1,0-1.34,1.5A1.42,1.42,0,0,0,866.09,430.84ZM847.27,211.77a2.23,2.23,0,1,0-2.2,2.26A2.23,2.23,0,0,0,847.27,211.77Zm-1.63,101.09a1.45,1.45,0,1,0,1.71,1.14A1.45,1.45,0,0,0,845.64,312.86ZM513.14,442a.77.77,0,1,0,.94.56A.77.77,0,0,0,513.14,442ZM185.65,73.6a2.45,2.45,0,1,0-2.45-2.45A2.45,2.45,0,0,0,185.65,73.6Zm-1.32,369.31a1.84,1.84,0,1,0-.8,2.47A1.84,1.84,0,0,0,184.32,442.91Zm6.9-325a1.17,1.17,0,1,0-1.17,1.17A1.17,1.17,0,0,0,191.23,117.91Zm.44,181.56a1.37,1.37,0,1,0,1.37,1.37A1.37,1.37,0,0,0,191.67,299.48ZM176.11,441.6a1.45,1.45,0,1,0-1.23,1.63A1.45,1.45,0,0,0,176.11,441.6Zm12.28-42.93a1.45,1.45,0,1,0,1.48,1.42A1.45,1.45,0,0,0,188.39,398.66Zm43.92-37.83a1.39,1.39,0,1,0-1.88-.59A1.39,1.39,0,0,0,232.31,360.83Zm-1.81,38.75a1.56,1.56,0,1,0-1.77-1.31A1.56,1.56,0,0,0,230.5,399.58Zm-9-268.54a2.54,2.54,0,1,0,3.1-1.82A2.54,2.54,0,0,0,221.47,131Zm.22-58.27a1.34,1.34,0,1,0-1.34,1.35A1.34,1.34,0,0,0,221.69,72.77Zm1.81,29.4a1.11,1.11,0,1,0,1.14-1.08A1.11,1.11,0,0,0,223.5,102.17ZM221.73,60a2.33,2.33,0,1,0-2.25-2.4A2.33,2.33,0,0,0,221.73,60Zm-81.16,92a2.55,2.55,0,1,0-.9-3.49A2.55,2.55,0,0,0,140.57,152Zm16.36,20.87a1.58,1.58,0,1,0,2.17.56A1.58,1.58,0,0,0,156.93,172.89ZM146.52,379.67a3.85,3.85,0,1,0-1.68,5.18A3.84,3.84,0,0,0,146.52,379.67ZM155,49.84a1.06,1.06,0,1,0-1.06-1.06A1.06,1.06,0,0,0,155,49.84Zm2.78,167a1.14,1.14,0,1,0-1.48-.65A1.14,1.14,0,0,0,157.75,216.83Zm60.15-28.19a1.13,1.13,0,1,0,1.35.86A1.13,1.13,0,0,0,217.9,188.64ZM164,340.08a1.32,1.32,0,1,0-1.8-.48A1.32,1.32,0,0,0,164,340.08Zm44.41,76.86a3.1,3.1,0,1,0-2.82-3.35A3.1,3.1,0,0,0,208.45,416.94Zm32.07-242.74a1.57,1.57,0,1,0,.55,2.15A1.57,1.57,0,0,0,240.52,174.19Zm-5.93,100.5a2.44,2.44,0,1,0,3.23,1.22A2.44,2.44,0,0,0,234.59,274.69ZM214.77,334a3.26,3.26,0,1,0,3.71,2.74A3.26,3.26,0,0,0,214.77,334Zm8.33,96.77a4.4,4.4,0,1,0,5.59,2.75A4.4,4.4,0,0,0,223.1,430.8Zm36.22-112.08a1.17,1.17,0,1,0-1.54-.58A1.17,1.17,0,0,0,259.32,318.72Zm-3.09-39a2.37,2.37,0,1,0-3.19-1A2.37,2.37,0,0,0,256.23,279.67ZM209.61,218.6a1.7,1.7,0,1,0-2.32-.62A1.7,1.7,0,0,0,209.61,218.6ZM205.47,51.45a1.06,1.06,0,1,0-1.06-1.06A1.06,1.06,0,0,0,205.47,51.45Zm11,127.18a1.21,1.21,0,1,0,.87,1.48A1.21,1.21,0,0,0,216.5,178.64Zm-3.68-59.79a1.47,1.47,0,1,0-1.91-.83A1.47,1.47,0,0,0,212.82,118.85Zm2.34-97.06A2.82,2.82,0,1,0,212.34,19,2.82,2.82,0,0,0,215.16,21.78ZM146.67,287.95a1.7,1.7,0,1,0,2.41,0A1.7,1.7,0,0,0,146.67,287.95Zm59.75-142a2.37,2.37,0,1,0-1.8,2.83A2.37,2.37,0,0,0,206.42,145.92Zm-6.54,164.25a2.91,2.91,0,1,0,3.93,1.23A2.91,2.91,0,0,0,199.88,310.18Zm-95.64,14.76a2.23,2.23,0,1,0,2.23-2.23A2.23,2.23,0,0,0,104.23,324.93Zm-25.88-40.1a2.31,2.31,0,1,0-3.19-.66A2.31,2.31,0,0,0,78.35,284.83Zm3.59,78.38a1.08,1.08,0,1,0,1.48.36A1.08,1.08,0,0,0,81.95,363.21ZM57.7,331.42a2.26,2.26,0,1,0-3.1-.75A2.25,2.25,0,0,0,57.7,331.42Zm1-25.78a1.29,1.29,0,1,0-1.8.32A1.29,1.29,0,0,0,58.65,305.63Zm40.4,124.22a2.36,2.36,0,1,0-2.41-2.3A2.35,2.35,0,0,0,99.05,429.85Zm-4-47.42a2.77,2.77,0,1,0,0,3.91A2.76,2.76,0,0,0,95.09,382.43Zm5.9,66a1,1,0,1,0,1.17.69A1,1,0,0,0,101,448.39ZM25.62,259.3a2.06,2.06,0,1,0-2.74-1A2.06,2.06,0,0,0,25.62,259.3ZM14.34,80.88a1.55,1.55,0,1,0-1.53-1.56A1.55,1.55,0,0,0,14.34,80.88ZM135.79,172.6a2.39,2.39,0,1,0,3.1,1.35A2.39,2.39,0,0,0,135.79,172.6ZM358.88.44A1.93,1.93,0,0,0,360.1,0h-2.45A1.93,1.93,0,0,0,358.88.44Zm-345,276.67a2.71,2.71,0,1,0,.68,3.77A2.71,2.71,0,0,0,13.88,277.12Zm32.62-98.06a1.67,1.67,0,1,0-.42-2.32A1.67,1.67,0,0,0,46.49,179.06ZM26.37,395.79a3.57,3.57,0,1,0,4.07,3A3.57,3.57,0,0,0,26.37,395.79Zm35.21-392a1.4,1.4,0,1,0,1.28,1.5A1.4,1.4,0,0,0,61.59,3.84ZM60,83.49a1.57,1.57,0,1,0,1.58,1.57A1.57,1.57,0,0,0,60,83.49ZM480.5,43a2.35,2.35,0,1,0-2.16-2.53A2.35,2.35,0,0,0,480.5,43ZM104.3,397.77a1.37,1.37,0,1,0,1.37,1.37A1.37,1.37,0,0,0,104.3,397.77Zm1.08-79.45a1.1,1.1,0,1,0-1.52-.31A1.1,1.1,0,0,0,105.38,318.32Zm1.94,147.89a.46.46,0,1,0,.56.33A.46.46,0,0,0,107.32,466.21Zm14.4-273.15a1.22,1.22,0,1,0,.43,1.67A1.22,1.22,0,0,0,121.72,193.05Zm9.48,100.43a2.76,2.76,0,1,0,3.77,1A2.76,2.76,0,0,0,131.2,293.48Zm1.47,124.26a1.32,1.32,0,1,0,1.87,0A1.32,1.32,0,0,0,132.67,417.75Zm3.5-205.26a1.42,1.42,0,1,0,2,.4A1.42,1.42,0,0,0,136.17,212.49ZM128.42,75a1.37,1.37,0,1,0,1.2,1.53A1.37,1.37,0,0,0,128.42,75ZM134,429.64a.59.59,0,1,0,.72.43A.59.59,0,0,0,134,429.64ZM133.25,162a1.37,1.37,0,1,0-1.24-1.49A1.37,1.37,0,0,0,133.25,162Zm-16.7,127.14a1.23,1.23,0,1,0-1.68-.44A1.23,1.23,0,0,0,116.54,289.16ZM118,264.85a1.39,1.39,0,1,0-1.91-.46A1.39,1.39,0,0,0,118,264.85ZM88.31,250.27a2.57,2.57,0,1,0-3.52-.92A2.57,2.57,0,0,0,88.31,250.27ZM112,28.84a1.64,1.64,0,1,0-1.54-1.73A1.64,1.64,0,0,0,112,28.84ZM110.48,368.6a1.06,1.06,0,1,0-1.06-1.06A1.06,1.06,0,0,0,110.48,368.6Zm-98-351.23a3.2,3.2,0,0,0-4-3.17v6.28a3.22,3.22,0,0,0,4-3.1ZM400.74,437.12a1.43,1.43,0,1,0-1.77-1A1.43,1.43,0,0,0,400.74,437.12Zm-12-399.44a1.06,1.06,0,1,0,.89,1.22A1.06,1.06,0,0,0,388.76,37.68Zm7.52,364a1.29,1.29,0,1,0,1.71.63A1.29,1.29,0,0,0,396.28,401.73ZM418.62,96.87a1.38,1.38,0,1,0-1.12-1.59A1.38,1.38,0,0,0,418.62,96.87Zm-13.3,115.6a1,1,0,1,0-1-1A1,1,0,0,0,405.32,212.48ZM414,342a2.94,2.94,0,1,0-2.3,3.45A2.94,2.94,0,0,0,414,342Zm2.45,34.64a1.5,1.5,0,1,0-.72,2A1.5,1.5,0,0,0,416.49,376.63Zm-14.87-206.5a2.06,2.06,0,1,0,2.06,2.06A2.06,2.06,0,0,0,401.61,170.14Zm-39.1,32.65a1.21,1.21,0,1,0-1.46-.89A1.21,1.21,0,0,0,362.52,202.79Zm-.13-166.13a.93.93,0,1,0-.93-.93A.93.93,0,0,0,362.39,36.66Zm9.49,324a2.69,2.69,0,1,0-3.58-1.31A2.69,2.69,0,0,0,371.88,360.7Zm-3.93-151.65a3.48,3.48,0,1,0-2.23,4.38A3.48,3.48,0,0,0,367.95,209.06Zm-2.09,127.53a2.71,2.71,0,1,0,1.69-3.44A2.71,2.71,0,0,0,365.86,336.58ZM391.65,273a1.66,1.66,0,1,0-2.09-1.07A1.66,1.66,0,0,0,391.65,273Zm-3.32-105.59a1.15,1.15,0,1,0,.69,1.48A1.15,1.15,0,0,0,388.33,167.38Zm-9-140.5a1.1,1.1,0,1,0-1.1-1.1A1.1,1.1,0,0,0,379.33,26.88Zm-.62,352.32a3,3,0,1,0,3.7,2.07A3,3,0,0,0,378.71,379.2Zm-12-313.13a1.56,1.56,0,1,0-1.43-1.68A1.56,1.56,0,0,0,366.72,66.07Zm131.11,307.5a.87.87,0,1,0,1.19.29A.87.87,0,0,0,497.83,373.57Zm-2.89-63a1.85,1.85,0,1,0-2.57-.53A1.85,1.85,0,0,0,494.94,310.56ZM452.55,290a1.66,1.66,0,1,0-2.2-.81A1.66,1.66,0,0,0,452.55,290Zm3.87,112.13a2.87,2.87,0,1,0-2.41,3.27A2.87,2.87,0,0,0,456.43,402.17ZM480.1,135.37a2.14,2.14,0,1,0-2.7-1.37A2.14,2.14,0,0,0,480.1,135.37Zm.16-49.66a1.12,1.12,0,1,0,1.21-1A1.12,1.12,0,0,0,480.26,85.71ZM479,150a1.27,1.27,0,1,0,1.27-1.27A1.27,1.27,0,0,0,479,150Zm.15,177.3a1,1,0,1,0-1.45.26A1,1,0,0,0,479.1,327.28Zm3.64-8.11a1.85,1.85,0,1,0-1.27,2.28A1.84,1.84,0,0,0,482.74,319.17Zm-41.8-159a1.38,1.38,0,1,0,1.38-1.38A1.38,1.38,0,0,0,440.94,160.15ZM436.76,95.5a2.61,2.61,0,1,0,2.63-2.58A2.6,2.6,0,0,0,436.76,95.5Zm6.72,51.11a1.24,1.24,0,1,0-1.23-1.26A1.24,1.24,0,0,0,443.48,146.61Zm-3.09-44a1.35,1.35,0,0,0-1,.43,2.9,2.9,0,1,0,.54,2.2,1.35,1.35,0,1,0,.45-2.63Zm-5.12-50a2.84,2.84,0,1,0-2.84-2.84A2.84,2.84,0,0,0,435.28,52.59Zm-7.66,345.34a1.4,1.4,0,1,0-1.65-1.1A1.4,1.4,0,0,0,427.62,397.93Zm15.49-93.57a2.18,2.18,0,1,0,.54,3A2.18,2.18,0,0,0,443.11,304.36ZM296.3,239.65a2,2,0,1,0-1.44,2.38A2,2,0,0,0,296.3,239.65ZM314.43,79.94a.85.85,0,1,0-.85-.85A.85.85,0,0,0,314.43,79.94ZM290.27,327a2.51,2.51,0,1,0,3.55,0A2.51,2.51,0,0,0,290.27,327Zm18.95-114a1.5,1.5,0,1,0,2,.75A1.5,1.5,0,0,0,309.22,213.05Zm5.07-52a1.88,1.88,0,1,0,1.12,2.41A1.88,1.88,0,0,0,314.28,161.09Zm-10.1,37.43a.9.9,0,1,0-.53-1.15A.89.89,0,0,0,304.18,198.52ZM307,276.63a.94.94,0,1,0-1.13-.69A.94.94,0,0,0,307,276.63Zm4.21-229.82A1.78,1.78,0,1,0,309.43,45,1.78,1.78,0,0,0,311.22,46.82Zm.19-10.08A1.43,1.43,0,1,0,310,35.26,1.43,1.43,0,0,0,311.4,36.74ZM281.25,448.36a3.93,3.93,0,1,0-3.93-3.93A3.93,3.93,0,0,0,281.25,448.36Zm4.81-10.81a2.45,2.45,0,1,0-2.87-1.94A2.45,2.45,0,0,0,286.06,437.55Zm85.53-52.18a1.54,1.54,0,1,0-1.8-1.23A1.54,1.54,0,0,0,371.59,385.37ZM287.31,103.11a1.46,1.46,0,1,0-1.74-1.11A1.46,1.46,0,0,0,287.31,103.11ZM268.48,81.48a2.53,2.53,0,1,0,2.32,2.73A2.53,2.53,0,0,0,268.48,81.48ZM286,234.9a1.79,1.79,0,1,0-2.42-.76A1.79,1.79,0,0,0,286,234.9ZM275.92,30.48a1.06,1.06,0,1,0-1.06,1.06A1.06,1.06,0,0,0,275.92,30.48Zm3.24,15.75a1.51,1.51,0,1,0-1.51-1.51A1.51,1.51,0,0,0,279.16,46.23Zm23.75-.1a.85.85,0,1,0-.85-.85A.85.85,0,0,0,302.91,46.13Zm-34.06,87.63a1.21,1.21,0,1,0-1.11-1.3A1.21,1.21,0,0,0,268.85,133.76ZM329.67,388.7a1.91,1.91,0,1,0,1.74,2.06A1.91,1.91,0,0,0,329.67,388.7Zm23.79-67.62a3.23,3.23,0,1,0,3.78,2.57A3.23,3.23,0,0,0,353.46,321.08Zm-11.64-78.22a1.55,1.55,0,1,0-2.18,0A1.55,1.55,0,0,0,341.82,242.86Zm2.24,196.88a2.44,2.44,0,1,0-1.17,3.25A2.44,2.44,0,0,0,344.06,439.74ZM372.17,390a1.51,1.51,0,1,0,1.76,1.2A1.51,1.51,0,0,0,372.17,390ZM299.71,13.11a1.78,1.78,0,1,0-1.78-1.78A1.78,1.78,0,0,0,299.71,13.11Zm4.57,356.58a3.92,3.92,0,1,0,4.52,3.2A3.92,3.92,0,0,0,304.28,369.69ZM330.1,106.77a2.24,2.24,0,1,0-1.82-2.59A2.23,2.23,0,0,0,330.1,106.77Zm-3.2,41.65a1.07,1.07,0,1,0-.87-1.24A1.07,1.07,0,0,0,326.9,148.42ZM324.39,131a1.56,1.56,0,1,0-1.12-1.91A1.56,1.56,0,0,0,324.39,131ZM330,360.35a1.2,1.2,0,1,0-1.69,0A1.2,1.2,0,0,0,330,360.35ZM333,282a2,2,0,1,0,2.28,1.69A2,2,0,0,0,333,282Z" transform="translate(-8.44 0)"/><path class="cls-2" d="M602.62,63.35A1.37,1.37,0,1,0,601.25,62,1.37,1.37,0,0,0,602.62,63.35ZM572.28,258.05a1.87,1.87,0,1,0-1.87-1.87A1.87,1.87,0,0,0,572.28,258.05Zm1.84,93.61a1.69,1.69,0,1,0,1.05-2.14A1.69,1.69,0,0,0,574.12,351.67Zm30.58,64.75a3.54,3.54,0,1,0-4.49-2.21A3.54,3.54,0,0,0,604.7,416.42Zm1.54-233.09a1.31,1.31,0,1,0-1.31-1.31A1.31,1.31,0,0,0,606.24,183.33Zm45.94,102.46a3.48,3.48,0,1,0-3.48-3.47A3.47,3.47,0,0,0,652.19,285.78Zm-54.75,38.77a2.08,2.08,0,1,0-2.08-2.08A2.08,2.08,0,0,0,597.44,324.55Zm38.43,82.14a1.48,1.48,0,1,0,.64-2A1.48,1.48,0,0,0,635.87,406.69Zm-2.8-141.75a2.18,2.18,0,1,0-1.19-2.85A2.18,2.18,0,0,0,633.07,264.93Zm-21.88-27.78a2.74,2.74,0,1,0-2.74-2.74A2.74,2.74,0,0,0,611.19,237.15Zm-31.86,97.71a3.91,3.91,0,1,0-3.91-3.91A3.91,3.91,0,0,0,579.33,334.86ZM597.7,442.94a1.25,1.25,0,1,0,1.05-1.42A1.25,1.25,0,0,0,597.7,442.94ZM518.33,285.33a3.72,3.72,0,1,0-3.71-3.72A3.71,3.71,0,0,0,518.33,285.33Zm-6.7-72.93a1.77,1.77,0,1,0-1.77-1.77A1.77,1.77,0,0,0,511.63,212.4Zm7.78,105.3a2.14,2.14,0,1,0,2.14,2.14A2.14,2.14,0,0,0,519.41,317.7ZM500.33,91.21A2.31,2.31,0,1,0,502.73,89,2.3,2.3,0,0,0,500.33,91.21Zm6.08,174.49a1.69,1.69,0,1,0-1.69-1.69A1.69,1.69,0,0,0,506.41,265.71ZM500.35,48.19A1.1,1.1,0,1,0,499.3,47,1.1,1.1,0,0,0,500.35,48.19Zm60-3.26a1.2,1.2,0,1,0-1.08-1.31A1.2,1.2,0,0,0,560.4,44.94Zm-5.6,360.53a3.16,3.16,0,1,0,3.16-3.16A3.16,3.16,0,0,0,554.8,405.47Zm5.82-321A1.38,1.38,0,1,0,562,83,1.37,1.37,0,0,0,560.62,84.43Zm-.36,10.13A2.52,2.52,0,1,0,558,91.82,2.52,2.52,0,0,0,560.25,94.56Zm-8.71,95.35a2.79,2.79,0,1,0,3-2.6A2.78,2.78,0,0,0,551.54,189.91ZM552.6,138a1.33,1.33,0,1,0-1.24-1.41A1.33,1.33,0,0,0,552.6,138Zm71.56,35.17a1.27,1.27,0,1,0-.87-1.57A1.27,1.27,0,0,0,624.17,173.14ZM697.77,388a.37.37,0,1,0-.45-.27A.37.37,0,0,0,697.77,388Zm-9.2-63.4a1.54,1.54,0,1,0,1.56-1.52A1.54,1.54,0,0,0,688.57,324.56Zm-.74-284.44a2.23,2.23,0,1,0-2.23-2.23A2.23,2.23,0,0,0,687.83,40.12Zm55.32,121.76a2.91,2.91,0,1,0,2.91-2.9A2.9,2.9,0,0,0,743.15,161.88Zm4.39,89.89a2.45,2.45,0,1,0-2.45,2.45A2.45,2.45,0,0,0,747.54,251.77Zm-6.72-144a1.39,1.39,0,1,0-1.39-1.39A1.39,1.39,0,0,0,740.81,107.76ZM742.25,61A2.23,2.23,0,1,0,740,58.73,2.23,2.23,0,0,0,742.25,61ZM720.66,222.87a1.62,1.62,0,1,0-1.62-1.62A1.62,1.62,0,0,0,720.66,222.87ZM713.38,134a1,1,0,1,0-.68-1.22A1,1,0,0,0,713.38,134Zm11.81-70.63A1.36,1.36,0,1,0,723.83,62,1.35,1.35,0,0,0,725.19,63.37Zm1.58,225.93a3.38,3.38,0,1,0-3.38-3.38A3.38,3.38,0,0,0,726.76,289.3ZM725.15,64.76a1.32,1.32,0,1,0,1.32-1.32A1.32,1.32,0,0,0,725.15,64.76Zm-49.21,345.1a1.77,1.77,0,1,0,1.67-1.86A1.77,1.77,0,0,0,675.94,409.86Zm-1.84,14.75a1.32,1.32,0,1,0-1.64-.91A1.32,1.32,0,0,0,674.1,424.61ZM705.9,174a2.06,2.06,0,1,0-1.42-2.55A2.06,2.06,0,0,0,705.9,174Zm-30,252.91a1.06,1.06,0,1,0,0-1.5A1.06,1.06,0,0,0,675.89,426.9Zm-30-209.32a1.66,1.66,0,1,0-1.66-1.66A1.66,1.66,0,0,0,645.92,217.58ZM647.4,62.52a2.24,2.24,0,1,0-2.23-2.24A2.23,2.23,0,0,0,647.4,62.52ZM657,84.19a1.37,1.37,0,1,0-1.37-1.37A1.37,1.37,0,0,0,657,84.19ZM676.3,417.35a.47.47,0,1,0-.58-.34A.48.48,0,0,0,676.3,417.35Zm5.55-119.78a2.77,2.77,0,1,0-2.77-2.77A2.77,2.77,0,0,0,681.85,297.58ZM697,118a1.14,1.14,0,1,0-1.14-1.14A1.14,1.14,0,0,0,697,118Zm-.07,164.43a2.44,2.44,0,1,0-2.82-2A2.44,2.44,0,0,0,696.95,282.44Zm9,13.3a2.84,2.84,0,1,0,2.84-2.84A2.84,2.84,0,0,0,706,295.73Zm-29.14-52.61a1.32,1.32,0,1,0-1.32-1.32A1.32,1.32,0,0,0,676.85,243.13ZM208.6,358.88a1.84,1.84,0,1,0-1.68-2A1.84,1.84,0,0,0,208.6,358.88ZM326.94,148.82a3.34,3.34,0,1,0,4.55-1.28A3.34,3.34,0,0,0,326.94,148.82ZM174.4,234.48a1.54,1.54,0,1,0-.86-2A1.53,1.53,0,0,0,174.4,234.48Zm12.46-97a2.95,2.95,0,1,0-1-4A2.95,2.95,0,0,0,186.85,137.53Zm-53-.2a1.36,1.36,0,1,0-.83-1.73A1.35,1.35,0,0,0,133.87,137.33Zm66.07-16.08a2.05,2.05,0,1,0-.79-2.8A2.05,2.05,0,0,0,199.94,121.25ZM154.44,228.19a3,3,0,1,0-2-3.78A3,3,0,0,0,154.44,228.19Zm12-58.45a1.45,1.45,0,1,0-1-1.8A1.45,1.45,0,0,0,166.47,169.74Zm120.09,28.83a1.19,1.19,0,1,0-.66-1.55A1.19,1.19,0,0,0,286.57,198.57ZM276.33,32a1.71,1.71,0,1,0-1.64-1.78A1.71,1.71,0,0,0,276.33,32Zm-3.75,213.72a2.5,2.5,0,1,0-1.39-3.24A2.49,2.49,0,0,0,272.58,245.71ZM252,398a1.8,1.8,0,1,0-2-1.54A1.8,1.8,0,0,0,252,398Zm-42.92,36.82a3.85,3.85,0,1,0-3.51-4.17A3.85,3.85,0,0,0,209.08,434.83Zm2.48-349.89a1.41,1.41,0,1,0-.5-1.92A1.41,1.41,0,0,0,211.56,84.95ZM179.41,72.56a2.23,2.23,0,1,0-1.58-2.73A2.23,2.23,0,0,0,179.41,72.56ZM63,289.88a3.07,3.07,0,1,0-.67-4.29A3.07,3.07,0,0,0,63,289.88ZM14.79,348.59a1.45,1.45,0,1,0-1.93-.7A1.45,1.45,0,0,0,14.79,348.59ZM34.58,224.78a1.86,1.86,0,1,0-1.24-2.32A1.86,1.86,0,0,0,34.58,224.78ZM45.07,400.25a3,3,0,1,0-4-1.46A3,3,0,0,0,45.07,400.25ZM100,40.9a1.2,1.2,0,1,0-1-1.41A1.2,1.2,0,0,0,100,40.9Zm13.14,360.61a3,3,0,1,0,3.57,2.41A3,3,0,0,0,113.19,401.51ZM95.09,90.33a2.52,2.52,0,1,0-2-3A2.52,2.52,0,0,0,95.09,90.33Zm25,101.22a2.84,2.84,0,1,0-1.73-3.62A2.84,2.84,0,0,0,120.11,191.55ZM88.05,244.23a2.77,2.77,0,1,0-3.16-2.32A2.77,2.77,0,0,0,88.05,244.23Zm7.68-8.77a1.47,1.47,0,1,0,.32,2A1.47,1.47,0,0,0,95.73,235.46ZM97.1,347a1.45,1.45,0,1,0,1.7,1.15A1.45,1.45,0,0,0,97.1,347ZM74.19,107a1.81,1.81,0,1,0-.65-2.48A1.81,1.81,0,0,0,74.19,107ZM394.56,180.9a2.23,2.23,0,1,0-2.23-2.23A2.23,2.23,0,0,0,394.56,180.9ZM438.38,386a2.31,2.31,0,1,0-2.43-2.18A2.31,2.31,0,0,0,438.38,386Zm-25-272.21a1.42,1.42,0,1,0-1.36-1.48A1.42,1.42,0,0,0,413.41,113.78Zm26,330.39a1.13,1.13,0,1,0,.88-1.33A1.13,1.13,0,0,0,439.42,444.17ZM403.66,55.23A2.23,2.23,0,1,0,401.43,53,2.23,2.23,0,0,0,403.66,55.23Zm-1.6,115.4a1.11,1.11,0,1,0-1.12-1.11A1.11,1.11,0,0,0,402.06,170.63Zm59.84,240.71a1.15,1.15,0,1,0,1.42.79A1.15,1.15,0,0,0,461.91,411.34Zm7-350.84a2.23,2.23,0,1,0-2.23-2.23A2.23,2.23,0,0,0,468.88,60.5ZM431.77,340.88a1.1,1.1,0,1,0-1.16-1A1.1,1.1,0,0,0,431.77,340.88Zm14.29-125.81a1.71,1.71,0,1,0-1.6-1.82A1.72,1.72,0,0,0,446.05,215.07Zm16-103.49a1.55,1.55,0,1,0-1.4-1.69A1.55,1.55,0,0,0,462,111.58Zm-32.2,264a2.41,2.41,0,1,0-2.41-2.41A2.41,2.41,0,0,0,429.81,375.61ZM403.94,214.14a2.34,2.34,0,1,0,2.34-2.33A2.33,2.33,0,0,0,403.94,214.14Zm-58.58,82.29a1.39,1.39,0,1,0-1.57-1.19A1.39,1.39,0,0,0,345.36,296.43Zm2.49,126.86a1.06,1.06,0,1,0,1.32.73A1.06,1.06,0,0,0,347.85,423.29ZM346,416.94a2.93,2.93,0,1,0-3-2.87A2.93,2.93,0,0,0,346,416.94ZM323.69,318a1.71,1.71,0,1,0,1.67,1.74A1.71,1.71,0,0,0,323.69,318Zm-.62-246.33a3.63,3.63,0,1,0-2.57-4.44A3.62,3.62,0,0,0,323.07,71.68Zm16.35,287.88a1.4,1.4,0,1,0-1.43-1.37A1.4,1.4,0,0,0,339.42,359.56ZM335.06,1.19A1.73,1.73,0,0,0,337.16,0h-3.32A1.72,1.72,0,0,0,335.06,1.19Zm20,92.07a1.59,1.59,0,1,0-.61-2.17A1.59,1.59,0,0,0,355,93.27ZM376.36,324a2.29,2.29,0,1,0-2.29-2.29A2.29,2.29,0,0,0,376.36,324Zm7.32-240.3a1.37,1.37,0,1,0-1.37-1.37A1.37,1.37,0,0,0,383.67,83.72Zm-29,239.5a2.23,2.23,0,1,0-2.23-2.23A2.23,2.23,0,0,0,354.67,323.22Zm35.87-186.09a1.06,1.06,0,1,0-1.06-1.06A1.06,1.06,0,0,0,390.54,137.13ZM349.92,413.48a1.42,1.42,0,1,0,1.34-1.5A1.42,1.42,0,0,0,349.92,413.48ZM355.15,350a2.92,2.92,0,1,0,2.49-3.3A2.92,2.92,0,0,0,355.15,350Zm-4.51-72.72a1.06,1.06,0,0,0-1.06,1.06h2.13A1.06,1.06,0,0,0,350.65,277.32Zm352.22,125a.77.77,0,1,0-.94-.56A.77.77,0,0,0,702.86,402.28Zm328.81-.87a1.84,1.84,0,1,0,.8-2.47A1.84,1.84,0,0,0,1031.68,401.41Zm-3.49-176.34a2.72,2.72,0,1,0-1.47-3.55A2.71,2.71,0,0,0,1028.19,225.07Zm11.7,177.66a1.45,1.45,0,1,0,1.23-1.63A1.45,1.45,0,0,0,1039.89,402.72Zm-12.28,42.93a1.45,1.45,0,1,0-1.48-1.42A1.45,1.45,0,0,0,1027.61,445.66ZM994.82,123.55a1.63,1.63,0,1,0-1.63-1.63A1.63,1.63,0,0,0,994.82,123.55Zm74.5,120.08a1,1,0,1,0-.53-1.24A1,1,0,0,0,1069.31,243.63Zm-11.25,37.9a2,2,0,1,0-1.12-2.61A2,2,0,0,0,1058.06,281.53ZM1052,251a4.32,4.32,0,1,0-4.32-4.32A4.32,4.32,0,0,0,1052,251Zm9.11-141.28a1.37,1.37,0,1,0-1.31-1.43A1.37,1.37,0,0,0,1061.08,109.73Zm-21.19-28.16a1.37,1.37,0,1,0-1.36-1.39A1.37,1.37,0,0,0,1039.89,81.57Zm4.29,84.59a2.06,2.06,0,1,0-2.06-2.06A2.06,2.06,0,0,0,1044.18,166.16ZM1058.82,0h-1.63a1.69,1.69,0,0,0,.82.22A1.69,1.69,0,0,0,1058.82,0Zm-51.27,427.38a3.1,3.1,0,1,0,2.82,3.35A3.1,3.1,0,0,0,1007.55,427.38ZM983.86,299.23a2.59,2.59,0,1,0-2.59-2.59A2.59,2.59,0,0,0,983.86,299.23Zm9,114.29a4.4,4.4,0,1,0-5.59-2.75A4.4,4.4,0,0,0,992.9,413.52Zm-9.72-271.18a1.79,1.79,0,1,0-1.27-2.2A1.79,1.79,0,0,0,983.18,142.34Zm-10.4,78.12A1.16,1.16,0,1,0,972,219,1.16,1.16,0,0,0,972.78,220.45Zm16.38-25.89a2.37,2.37,0,1,0-.84-3.24A2.37,2.37,0,0,0,989.16,194.56ZM954.85,333a2.1,2.1,0,1,0,1.31-2.67A2.1,2.1,0,0,0,954.85,333ZM953.18,34.21A2.23,2.23,0,1,0,950.95,32,2.23,2.23,0,0,0,953.18,34.21Zm-.61,182.29a2.32,2.32,0,1,0-2.32-2.32A2.32,2.32,0,0,0,952.56,216.51Zm26.58,56a1.23,1.23,0,1,0-.69-1.6A1.23,1.23,0,0,0,979.14,272.5ZM1009,152.3a1.13,1.13,0,1,0-.4-1.55A1.13,1.13,0,0,0,1009,152.3ZM1001,190.5a3.41,3.41,0,1,0-3.41-3.41A3.41,3.41,0,0,0,1001,190.5Zm5.67,182a1.48,1.48,0,1,0-1.35-1.6A1.48,1.48,0,0,0,1006.63,372.5Zm-7-191a1.65,1.65,0,1,0-.63-2.25A1.65,1.65,0,0,0,999.67,181.48Zm17.44-70.6a1.58,1.58,0,1,0-1.09-2A1.58,1.58,0,0,0,1017.11,110.88Zm127.63,144.5a4.21,4.21,0,1,0-4.21-4.21A4.21,4.21,0,0,0,1144.74,255.38Zm-7.59-82.64a2,2,0,1,0-2-2A2,2,0,0,0,1137.16,172.74Zm21-39a1.64,1.64,0,1,0-1.12-2A1.64,1.64,0,0,0,1158.19,133.77Zm-41.25,280.7a2.36,2.36,0,1,0,2.41,2.3A2.35,2.35,0,0,0,1116.95,414.46Zm1.84-302.54a2.57,2.57,0,1,0-1.77-3.17A2.57,2.57,0,0,0,1118.79,111.93Zm-3.78,284a1,1,0,1,0-1.17-.69A1,1,0,0,0,1115,395.93Zm1.56-73.63a1.12,1.12,0,1,0-1.27-1A1.12,1.12,0,0,0,1116.57,322.3Zm85-75.39a4.41,4.41,0,0,0,5.76-2.39,4.34,4.34,0,0,0,.24-.79v-1.81a4.41,4.41,0,1,0-6,5ZM10.23,182.17a1.74,1.74,0,0,0-1.79-2.32v3.47A1.74,1.74,0,0,0,10.23,182.17ZM1195.47,18.37a2.3,2.3,0,1,0-2.3-2.3A2.3,2.3,0,0,0,1195.47,18.37Zm-27.94,193.37a3.05,3.05,0,1,0-3.05-3.05A3.05,3.05,0,0,0,1167.54,211.75ZM1125.33,59.19a2.23,2.23,0,1,0-2.21-2.25A2.23,2.23,0,0,0,1125.33,59.19ZM1111.8,373a1.12,1.12,0,1,0-1.15-1.1A1.12,1.12,0,0,0,1111.8,373Zm-.1,73.5a1.37,1.37,0,1,0-1.37-1.37A1.37,1.37,0,0,0,1111.7,446.55ZM963.1,267.44a2.43,2.43,0,1,0-1.62-3A2.43,2.43,0,0,0,963.1,267.44Zm145.57,110.67a.46.46,0,1,0-.56-.33A.46.46,0,0,0,1108.68,378.11Zm-25.35,48.46a1.32,1.32,0,1,0-1.87,0A1.32,1.32,0,0,0,1083.33,426.57ZM1082,414.68a.59.59,0,1,0-.72-.43A.59.59,0,0,0,1082,414.68Zm24.65-173.82a3,3,0,1,0,3.51,2.48A3,3,0,0,0,1106.62,240.85Zm-7.46,98.79a1.37,1.37,0,1,0,1.34,1.4A1.37,1.37,0,0,0,1099.15,339.65Zm27.94,27.75a2.35,2.35,0,1,0-2.65-2A2.35,2.35,0,0,0,1127.1,367.4Zm.15-306.73a1.23,1.23,0,1,0,1.51-.84A1.23,1.23,0,0,0,1127.25,60.67Zm-1.15,97.82a1.28,1.28,0,1,0-1.74.49A1.28,1.28,0,0,0,1126.1,158.5ZM1107.3,83.27a1.39,1.39,0,1,0,1.7-1A1.39,1.39,0,0,0,1107.3,83.27Zm-8.14,214.09a1.91,1.91,0,1,0,1.88,1.94A1.91,1.91,0,0,0,1099.17,297.36Zm8.57-255.07a1.41,1.41,0,1,0-1.41-1.41A1.41,1.41,0,0,0,1107.73,42.29Zm-6,161.35a2.68,2.68,0,1,0,3.65-1A2.68,2.68,0,0,0,1101.76,203.64Zm-3.11-62a2.92,2.92,0,1,0-2.07-3.57A2.92,2.92,0,0,0,1098.66,141.63ZM815.26,407.2a1.43,1.43,0,1,0,1.77,1A1.43,1.43,0,0,0,815.26,407.2ZM793.09,215.7a1.69,1.69,0,1,0-.92-2.21A1.69,1.69,0,0,0,793.09,215.7ZM795.54,163a2.13,2.13,0,1,0-2-2.26A2.13,2.13,0,0,0,795.54,163Zm-23.1,119.45a3.55,3.55,0,1,0-1.93-4.63A3.54,3.54,0,0,0,772.44,282.49Zm47.29,160.1A1.29,1.29,0,1,0,818,442,1.29,1.29,0,0,0,819.72,442.59ZM815.39,34.3a1.93,1.93,0,1,0-1.74-2.1A1.93,1.93,0,0,0,815.39,34.3Zm-6.05,6.13a2.2,2.2,0,1,0-2.2-2.2A2.2,2.2,0,0,0,809.34,40.43ZM798.07,282.24a1.52,1.52,0,1,0-.33-2.12A1.52,1.52,0,0,0,798.07,282.24Zm52.77,82a1.17,1.17,0,1,0-1.55-.56A1.17,1.17,0,0,0,850.84,364.23ZM835.37,162.59a1.25,1.25,0,1,0-1-1.46A1.24,1.24,0,0,0,835.37,162.59ZM822.6,192.8a2.15,2.15,0,1,0-1.47-2.66A2.15,2.15,0,0,0,822.6,192.8Zm8-41.56a1,1,0,1,0-.7-1.27A1,1,0,0,0,830.56,151.24ZM754.93,37a1.77,1.77,0,1,0-1.69-1.84A1.76,1.76,0,0,0,754.93,37Zm9.28,25.52a.88.88,0,1,0-.88-.88A.88.88,0,0,0,764.21,62.55Zm-4.64,379.6a2.87,2.87,0,1,0,2.41-3.27A2.87,2.87,0,0,0,759.57,442.15Zm-28.1-321.62a2.77,2.77,0,1,0-2.77-2.77A2.77,2.77,0,0,0,731.47,120.53Zm6.1,71a1.32,1.32,0,1,0-.9-1.64A1.32,1.32,0,0,0,737.58,191.54Zm38.74,126.7a1.37,1.37,0,1,0,1.3-1.45A1.37,1.37,0,0,0,776.32,318.24ZM782,252.37a1.19,1.19,0,1,0-1.17-1.21A1.19,1.19,0,0,0,782,252.37Zm3.84,49a2.5,2.5,0,1,0-2.46-2.53A2.49,2.49,0,0,0,785.79,301.41Zm-.11,68.51a2.88,2.88,0,1,0,3,2.72A2.88,2.88,0,0,0,785.68,369.92Zm-10.35-13.16a3,3,0,1,0,3,3A3,3,0,0,0,775.33,356.76ZM760.48,64.18a1.37,1.37,0,1,0-1.37-1.37A1.37,1.37,0,0,0,760.48,64.18Zm7.06,34.61a1.85,1.85,0,1,0-1.85-1.85A1.85,1.85,0,0,0,767.54,98.78Zm131,71.23a1.46,1.46,0,1,0-.52-2A1.46,1.46,0,0,0,898.59,170Zm28.17-38.27a3.47,3.47,0,1,0,3.68-3.24A3.46,3.46,0,0,0,926.76,131.74Zm-7.38-14.85a1,1,0,1,0-.77-1.13A1,1,0,0,0,919.38,116.89Zm8.71-49.76a1.65,1.65,0,1,0-1.55-1.76A1.66,1.66,0,0,0,928.09,67.13ZM934.75,396a3.93,3.93,0,1,0,3.93,3.93A3.93,3.93,0,0,0,934.75,396Zm11.81-201.56a1.09,1.09,0,1,0-.66-1.39A1.09,1.09,0,0,0,946.57,194.41ZM935.5,238a2.28,2.28,0,1,0-1.39-2.91A2.28,2.28,0,0,0,935.5,238Zm-5.56,168.77a2.45,2.45,0,1,0,2.87,1.94A2.45,2.45,0,0,0,929.94,406.77ZM937.6,13.12a3.13,3.13,0,1,0-2.82-3.41A3.13,3.13,0,0,0,937.6,13.12Zm2.16-10.9A1.71,1.71,0,0,0,941.48.51a1.72,1.72,0,0,0-.09-.51h-3.25a1.72,1.72,0,0,0-.09.51A1.71,1.71,0,0,0,939.77,2.23ZM866.6,56.07A1.37,1.37,0,1,0,868,54.69,1.37,1.37,0,0,0,866.6,56.07Zm-.8-44.12a2.87,2.87,0,1,0-2.74-3A2.87,2.87,0,0,0,865.8,11.95Zm23.66,281.42a2.66,2.66,0,1,0-2.66,2.66A2.66,2.66,0,0,0,889.46,293.37Zm-21.83-31.53a1.5,1.5,0,1,0,1,1.87A1.5,1.5,0,0,0,867.62,261.83Zm.9-37.9a2.1,2.1,0,1,0,2.1-2.1A2.1,2.1,0,0,0,868.53,223.93ZM845.61,41a2.23,2.23,0,1,0-2.23-2.23A2.23,2.23,0,0,0,845.61,41Zm1.57,189.48a1.4,1.4,0,1,0-1.79.85A1.4,1.4,0,0,0,847.18,230.45Zm68.21-73.83a2,2,0,1,0-1.6-2.37A2,2,0,0,0,915.39,156.63Zm-38.27,3.09a2.21,2.21,0,1,0-2.21-2.21A2.21,2.21,0,0,0,877.12,159.72Zm-5.18,244.86a2.44,2.44,0,1,0,1.17-3.25A2.44,2.44,0,0,0,871.94,404.58Zm37.79-124.24a2.23,2.23,0,1,0-2.54-1.87A2.23,2.23,0,0,0,909.73,280.34Zm6.18-7a1.18,1.18,0,1,0,.26,1.65A1.18,1.18,0,0,0,915.91,273.29Zm.17,91a1.17,1.17,0,1,0,.93-1.37A1.17,1.17,0,0,0,916.08,364.3ZM912.37,36.48A1.37,1.37,0,1,0,911,35.1,1.37,1.37,0,0,0,912.37,36.48ZM889,313.58a2.47,2.47,0,1,0,3.45-.54A2.47,2.47,0,0,0,889,313.58Z" transform="translate(-8.44 0)"/></svg>